<?xml version="1.0" encoding="UTF-8" standalone="no"?>
<svg
   xmlns:dc="http://purl.org/dc/elements/1.1/"
   xmlns:cc="http://creativecommons.org/ns#"
   xmlns:rdf="http://www.w3.org/1999/02/22-rdf-syntax-ns#"
   xmlns:svg="http://www.w3.org/2000/svg"
   xmlns="http://www.w3.org/2000/svg"
   xmlns:sodipodi="http://sodipodi.sourceforge.net/DTD/sodipodi-0.dtd"
   xmlns:inkscape="http://www.inkscape.org/namespaces/inkscape"
   inkscape:version="1.0rc1 (09960d6f05, 2020-04-09)"
   sodipodi:docname="logo.svg"
   id="svg8"
   version="1.1"
   viewBox="0 0 255.27368 145.36618"
   height="145.36618mm"
   width="255.27368mm">
  <defs
     id="defs2" />
  <sodipodi:namedview
     fit-margin-bottom="0"
     fit-margin-right="0"
     fit-margin-left="0"
     fit-margin-top="0"
     inkscape:snap-intersection-paths="true"
     inkscape:window-maximized="0"
     inkscape:window-y="253"
     inkscape:window-x="197"
     inkscape:window-height="1666"
     inkscape:window-width="2804"
     showgrid="false"
     inkscape:document-rotation="0"
     inkscape:current-layer="layer1"
     inkscape:document-units="mm"
     inkscape:cy="419.46259"
     inkscape:cx="386.69561"
     inkscape:zoom="0.8979798"
     inkscape:pageshadow="2"
     inkscape:pageopacity="0.0"
     borderopacity="1.0"
     bordercolor="#666666"
     pagecolor="#ffffff"
     id="base" />
  <metadata
     id="metadata5">
    <rdf:RDF>
      <cc:Work
         rdf:about="">
        <dc:format>image/svg+xml</dc:format>
        <dc:type
           rdf:resource="http://purl.org/dc/dcmitype/StillImage" />
        <dc:title></dc:title>
      </cc:Work>
    </rdf:RDF>
  </metadata>
  <g
     transform="translate(10.610859,164.41197)"
     id="layer1"
     inkscape:groupmode="layer"
     inkscape:label="Capa 1">
    <path
       inkscape:connector-curvature="0"
       d="m -5.3078409,-129.46774 2.6453171,18.26193 0.5741249,3.96358 c 4.7733333,-5.84552 10.8204506,-10.61434 17.7074459,-13.87357 l -3.788916,-1.51205 z"
       inkscape:transform-center-y="1.5272575"
       inkscape:transform-center-x="-3.9491824"
       style="fill:#efc743;fill-opacity:1;stroke:none;stroke-width:15.6026;stroke-miterlimit:4;stroke-dasharray:none;stroke-opacity:1"
       id="path995" />
    <path
       inkscape:connector-curvature="0"
       id="path892"
       d="m 40.02,-122.82791 c -27.844962,0 -50.630859,22.7859 -50.630859,50.630863 2e-6,27.84496 22.785898,50.63281 50.630859,50.63281 27.844963,0 50.632811,-22.78785 50.632811,-50.63281 0,-27.844963 -22.787847,-50.630863 -50.632811,-50.630863 z m 0,20 c 17.036162,0 30.632813,13.594703 30.632813,30.630863 -10e-7,17.03616 -13.596652,30.63281 -30.632813,30.63281 -17.03616,0 -30.6308573,-13.59665 -30.6308583,-30.63281 0,-17.03616 13.5946973,-30.630863 30.6308583,-30.630863 z"
       style="color:#000000;font-style:normal;font-variant:normal;font-weight:normal;font-stretch:normal;font-size:medium;line-height:normal;font-family:sans-serif;font-variant-ligatures:normal;font-variant-position:normal;font-variant-caps:normal;font-variant-numeric:normal;font-variant-alternates:normal;font-variant-east-asian:normal;font-feature-settings:normal;font-variation-settings:normal;text-indent:0;text-align:start;text-decoration:none;text-decoration-line:none;text-decoration-style:solid;text-decoration-color:#000000;letter-spacing:normal;word-spacing:normal;text-transform:none;writing-mode:lr-tb;direction:ltr;text-orientation:mixed;dominant-baseline:auto;baseline-shift:baseline;text-anchor:start;white-space:normal;shape-padding:0;shape-margin:0;inline-size:0;clip-rule:nonzero;display:inline;overflow:visible;visibility:visible;opacity:1;isolation:auto;mix-blend-mode:normal;color-interpolation:sRGB;color-interpolation-filters:linearRGB;solid-color:#000000;solid-opacity:1;vector-effect:none;fill:#264b96;fill-opacity:1;fill-rule:nonzero;stroke:none;stroke-width:20;stroke-linecap:butt;stroke-linejoin:miter;stroke-miterlimit:4;stroke-dasharray:none;stroke-dashoffset:0;stroke-opacity:1;color-rendering:auto;image-rendering:auto;shape-rendering:auto;text-rendering:auto;enable-background:accumulate;stop-color:#000000;stop-opacity:1" />
    <path
       inkscape:connector-curvature="0"
       id="path932"
       style="color:#000000;font-style:normal;font-variant:normal;font-weight:normal;font-stretch:normal;font-size:medium;line-height:normal;font-family:sans-serif;font-variant-ligatures:normal;font-variant-position:normal;font-variant-caps:normal;font-variant-numeric:normal;font-variant-alternates:normal;font-variant-east-asian:normal;font-feature-settings:normal;font-variation-settings:normal;text-indent:0;text-align:start;text-decoration:none;text-decoration-line:none;text-decoration-style:solid;text-decoration-color:#000000;letter-spacing:normal;word-spacing:normal;text-transform:none;writing-mode:lr-tb;direction:ltr;text-orientation:mixed;dominant-baseline:auto;baseline-shift:baseline;text-anchor:start;white-space:normal;shape-padding:0;shape-margin:0;inline-size:0;clip-rule:nonzero;display:inline;overflow:visible;visibility:visible;opacity:1;isolation:auto;mix-blend-mode:normal;color-interpolation:sRGB;color-interpolation-filters:linearRGB;solid-color:#000000;solid-opacity:1;vector-effect:none;fill:#006f3c;fill-opacity:1;fill-rule:nonzero;stroke:none;stroke-width:20;stroke-linecap:butt;stroke-linejoin:miter;stroke-miterlimit:4;stroke-dasharray:none;stroke-dashoffset:0;stroke-opacity:1;color-rendering:auto;image-rendering:auto;shape-rendering:auto;text-rendering:auto;enable-background:accumulate;stop-color:#000000;stop-opacity:1"
       d="m 91.357981,-142.23311 c -27.844961,0 -50.633082,22.78605 -50.633082,50.631013 0,16.79766 8.295079,31.75195 20.988383,40.97631 4.823563,-4.81824 8.027789,-11.25657 8.772591,-18.47277 -6.017377,-5.57762 -9.760646,-13.56632 -9.760646,-22.50354 0,-17.036163 13.596596,-30.631203 30.632754,-30.631203 17.036159,0 30.630689,13.59504 30.630689,30.631203 0,17.03616 -13.59453,30.63276 -30.630689,30.63276 -0.66837,0 -1.33082,-0.0239 -1.98799,-0.0651 -1.60036,6.94485 -4.63956,13.35589 -8.784478,18.89911 3.474648,0.76073 7.078418,1.16582 10.772468,1.16582 27.844959,-1e-5 50.631019,-22.7876 50.631019,-50.63257 0,-27.844963 -22.78606,-50.631003 -50.631019,-50.631013 z M 80.585513,-42.135347 c -6.484218,-1.41965 -12.513797,-4.09074 -17.820616,-7.7463 5.306904,3.65572 11.336369,6.32665 17.820616,7.7463 z m -17.820616,-7.7463 c -0.352962,-0.24313 -0.702543,-0.49082 -1.04903,-0.74259 0.346464,0.25175 0.696087,0.49946 1.04903,0.74259 z m 26.605094,-11.15281 c -0.22831,-0.0143 -0.45579,-0.0309 -0.68265,-0.0501 0.22683,0.0192 0.45438,0.0358 0.68265,0.0501 z m -0.68265,-0.0501 c -1.36116,-0.11523 -2.69582,-0.31773 -3.9982,-0.60203 1.30247,0.28438 2.63699,0.48679 3.9982,0.60203 z m -3.9982,-0.60203 c -1.7365,-0.37908 -3.416029,-0.90396 -5.025018,-1.56063 1.609212,0.65688 3.288298,1.18143 5.025018,1.56063 z m -5.025018,-1.56063 c -0.201123,-0.0821 -0.401064,-0.16599 -0.599964,-0.25218 0.198816,0.0862 0.398928,0.17012 0.599964,0.25218 z m -0.599964,-0.25218 c -1.392301,-0.60333 -2.729566,-1.30667 -4.002855,-2.10116 1.273323,0.79456 2.610509,1.49772 4.002855,2.10116 z m -4.002855,-2.10116 c -1.449358,-0.90436 -2.815809,-1.92693 -4.086571,-3.0546 1.27082,1.12774 2.63707,2.15009 4.086571,3.0546 z m -4.575431,-3.49798 c 0.15182,0.14072 0.305226,0.27991 0.45992,0.41754 -0.154747,-0.13767 -0.30805,-0.27677 -0.45992,-0.41754 z" />
    <path
       inkscape:connector-curvature="0"
       d="m 142.69387,-141.93648 c -27.84497,-1e-5 -50.633089,22.78604 -50.633089,50.631003 0,10.66848 3.34825,20.5926 9.041309,28.77913 6.55718,-2.16766 12.10099,-6.47333 15.82591,-12.10883 -3.08314,-4.78454 -4.86689,-10.50163 -4.86689,-16.6703 0,-17.036163 13.59659,-30.630693 30.63276,-30.630683 17.03615,0 30.63275,13.59453 30.63275,30.630683 0,17.03617 -13.5966,30.63276 -30.63275,30.63276 -3.53868,0 -6.92813,-0.58845 -10.07897,-1.6707 -4.1858,5.87484 -9.59269,10.82631 -15.83935,14.48077 7.59435,4.5602 16.46388,7.19026 25.91832,7.19026 27.84496,0 50.63256,-22.78813 50.63256,-50.63309 0,-27.844963 -22.7876,-50.631003 -50.63256,-50.631003 z m -25.91832,94.073833 c -2.31898,-1.39249 -4.51854,-2.96532 -6.57944,-4.69842 2.06103,1.73317 4.26051,3.30596 6.57944,4.69842 z m -6.57944,-4.69842 c -0.0153,-0.0129 -0.0307,-0.0258 -0.046,-0.0388 0.0153,0.0129 0.0306,0.0258 0.046,0.0388 z m -0.046,-0.0388 c -0.33513,-0.28249 -0.66658,-0.56899 -0.99426,-0.85989 0.32766,0.29088 0.65915,0.57742 0.99426,0.85989 z m -0.99426,-0.85989 c -0.33653,-0.29877 -0.66938,-0.60205 -0.99787,-0.90951 0.32863,0.30758 0.66119,0.61062 0.99787,0.90951 z m -0.99787,-0.90951 c -2.62712,-2.4589 -4.9939,-5.1928 -7.05383,-8.15454 2.05992,2.96172 4.4265,5.69549 7.05383,8.15454 z m 24.45691,-7.97419 c -0.8157,-0.28018 -1.61525,-0.59345 -2.39728,-0.93844 0.78207,0.34504 1.58154,0.65825 2.39728,0.93844 z m -2.39728,-0.93844 c -0.18011,-0.0795 -0.3592,-0.16112 -0.53743,-0.24392 0.17829,0.0828 0.35725,0.16442 0.53743,0.24392 z m -0.53743,-0.24392 c -0.0243,-0.0113 -0.0486,-0.0223 -0.0729,-0.0336 0.0242,0.0113 0.0486,0.0223 0.0729,0.0336 z m -0.0729,-0.0336 c -0.17983,-0.0841 -0.35855,-0.16987 -0.5364,-0.25734 0.17782,0.0875 0.3566,0.17323 0.5364,0.25734 z m -12.67933,-11.07581 c 0.22891,0.35524 0.46491,0.70532 0.70797,1.05007 -0.24308,-0.34478 -0.47904,-0.69479 -0.70797,-1.05007 z m 0.70797,1.05007 c 0.23863,0.33849 0.48449,0.6709 0.73638,0.9989 -0.25177,-0.32784 -0.49786,-0.66058 -0.73638,-0.9989 z m 0.73638,0.9989 c 0.008,0.011 0.0168,0.0221 0.0253,0.0331 -0.008,-0.011 -0.0169,-0.0221 -0.0253,-0.0331 z m 0.0253,0.0331 c 0.24696,0.32066 0.49985,0.63646 0.75913,0.94671 -0.25933,-0.3103 -0.51213,-0.626 -0.75913,-0.94671 z m 0.75913,0.94671 c 0.0165,0.0198 0.0335,0.0392 0.0501,0.0589 -0.0166,-0.0197 -0.0336,-0.0391 -0.0501,-0.0589 z m 0.0501,0.0589 c 0.53139,0.63259 1.08756,1.24358 1.66811,1.83038 -0.58058,-0.58678 -1.13669,-1.19779 -1.66811,-1.83038 z m 1.66811,1.83038 c 0.29011,0.29323 0.5865,0.58021 0.88832,0.86145 -0.30185,-0.28123 -0.59819,-0.56823 -0.88832,-0.86145 z m 0.88832,0.86145 c 0.0118,0.011 0.0233,0.0221 0.0351,0.0331 -0.0118,-0.011 -0.0234,-0.0221 -0.0351,-0.0331 z m 0.0351,0.0331 c 0.30201,0.28052 0.60962,0.55504 0.92294,0.8232 -0.31324,-0.26806 -0.621,-0.54278 -0.92294,-0.8232 z m 0.92501,0.82475 c 0.63124,0.54017 1.28523,1.05429 1.96009,1.54203 -0.67492,-0.48772 -1.3288,-1.00187 -1.96009,-1.54203 z m 1.96009,1.54203 c 0.0137,0.01 0.0271,0.0201 0.0408,0.03 -0.0137,-0.01 -0.0271,-0.0201 -0.0408,-0.03 z m 0.0408,0.03 c 0.33506,0.24131 0.6754,0.47599 1.02061,0.70383 -0.3452,-0.2278 -0.68556,-0.46256 -1.02061,-0.70383 z m 1.03921,0.71572 c 0.17188,0.11326 0.34451,0.225 0.51883,0.33486 -0.17421,-0.10978 -0.34705,-0.22168 -0.51883,-0.33486 z m 0.51883,0.33486 c 0.71544,0.45088 1.45144,0.87297 2.20607,1.26453 -0.75469,-0.39154 -1.49058,-0.81368 -2.20607,-1.26453 z m 2.20607,1.26453 c 0.18351,0.0952 0.36826,0.18849 0.55397,0.28008 -0.18575,-0.0916 -0.37042,-0.18486 -0.55397,-0.28008 z"
       style="color:#000000;font-style:normal;font-variant:normal;font-weight:normal;font-stretch:normal;font-size:medium;line-height:normal;font-family:sans-serif;font-variant-ligatures:normal;font-variant-position:normal;font-variant-caps:normal;font-variant-numeric:normal;font-variant-alternates:normal;font-variant-east-asian:normal;font-feature-settings:normal;font-variation-settings:normal;text-indent:0;text-align:start;text-decoration:none;text-decoration-line:none;text-decoration-style:solid;text-decoration-color:#000000;letter-spacing:normal;word-spacing:normal;text-transform:none;writing-mode:lr-tb;direction:ltr;text-orientation:mixed;dominant-baseline:auto;baseline-shift:baseline;text-anchor:start;white-space:normal;shape-padding:0;shape-margin:0;inline-size:0;clip-rule:nonzero;display:inline;overflow:visible;visibility:visible;opacity:1;isolation:auto;mix-blend-mode:normal;color-interpolation:sRGB;color-interpolation-filters:linearRGB;solid-color:#000000;solid-opacity:1;vector-effect:none;fill:#f9a73e;fill-opacity:1;fill-rule:nonzero;stroke:none;stroke-width:20;stroke-linecap:butt;stroke-linejoin:miter;stroke-miterlimit:4;stroke-dasharray:none;stroke-dashoffset:0;stroke-opacity:1;color-rendering:auto;image-rendering:auto;shape-rendering:auto;text-rendering:auto;enable-background:accumulate;stop-color:#000000;stop-opacity:1"
       id="path934" />
    <path
       inkscape:connector-curvature="0"
       d="m 194.02975,-120.31146 c -27.84497,1e-5 -50.63102,22.788133 -50.63102,50.633093 0,3.05879 0.2756,6.05623 0.80202,8.96948 7.42565,-0.35216 14.1219,-3.29473 19.2164,-7.95404 -0.0108,-0.33731 -0.0181,-0.67531 -0.0181,-1.01544 0,-17.03616 13.59452,-30.632763 30.63069,-30.632763 17.03616,0 30.63275,13.596603 30.63275,30.632763 0,17.03616 -13.5966,30.63275 -30.63275,30.63275 -9.22123,0 -17.43296,-3.98468 -23.02753,-10.34097 -5.63721,3.82709 -12.0781,6.54716 -19.00298,7.84758 9.11266,13.53958 24.57714,22.49321 42.03051,22.49321 27.84496,0 50.63308,-22.78762 50.63308,-50.63257 0,-27.84496 -22.78812,-50.633083 -50.63308,-50.633093 z m -30.6126,51.648533 c 0.0366,1.14845 0.13529,2.27992 0.29249,3.39152 -0.15718,-1.11162 -0.25586,-2.24303 -0.29249,-3.39152 z m 0.29817,3.43287 c 0.0291,0.20348 0.0601,0.40611 0.093,0.60823 -0.0329,-0.202 -0.064,-0.40487 -0.093,-0.60823 z m 0.093,0.60823 c 0.005,0.0295 0.01,0.0589 0.0145,0.0884 -0.005,-0.0294 -0.01,-0.0589 -0.0145,-0.0884 z m 0.0145,0.0884 c 0.0346,0.20817 0.0714,0.41553 0.11007,0.62219 -0.0387,-0.20672 -0.0755,-0.41397 -0.11007,-0.62219 z m 0.11162,0.62942 c 0.0411,0.21938 0.084,0.43814 0.12971,0.65578 -0.0457,-0.21763 -0.0886,-0.43641 -0.12971,-0.65578 z m 0.12971,0.65578 c 0.22999,1.09514 0.51774,2.16763 0.85989,3.21479 -0.34205,-1.04707 -0.62996,-2.11973 -0.85989,-3.21479 z m 0.85989,3.21479 c 0.0653,0.19991 0.13279,0.39884 0.20206,0.59686 -0.0692,-0.19799 -0.13676,-0.39699 -0.20206,-0.59686 z m -20.71915,-0.65375 c 0.0767,0.4232 0.15877,0.84445 0.24597,1.264 -0.0872,-0.41945 -0.16933,-0.8409 -0.24597,-1.264 z m 0.24597,1.264 c 0.0126,0.0604 0.027,0.12007 0.0398,0.18036 -0.0127,-0.0603 -0.0272,-0.12 -0.0398,-0.18036 z m 0.0398,0.18036 c 0.076,0.35894 0.15462,0.71716 0.23824,1.07332 -0.0836,-0.35621 -0.16223,-0.71433 -0.23824,-1.07332 z m 0.23824,1.07332 c 0.0277,0.1179 0.0578,0.23484 0.0863,0.35243 -0.0285,-0.1176 -0.0586,-0.23453 -0.0863,-0.35243 z m 0.0863,0.35243 c 0.0732,0.30209 0.14716,0.60383 0.22583,0.90382 -0.0787,-0.29995 -0.15259,-0.60177 -0.22583,-0.90382 z m 0.22583,0.90382 c 0.0351,0.13405 0.0733,0.26688 0.10955,0.40049 -0.0362,-0.13359 -0.0744,-0.26647 -0.10955,-0.40049 z m 0.10955,0.40049 c 0.0746,0.27505 0.14931,0.55 0.22841,0.82321 -0.0791,-0.27325 -0.15382,-0.54812 -0.22841,-0.82321 z m 0.22841,0.82321 c 0.0456,0.15753 0.094,0.31386 0.14108,0.47077 -0.0471,-0.15688 -0.0955,-0.31327 -0.14108,-0.47077 z m 0.14108,0.47077 c 0.0767,0.25558 0.15395,0.51091 0.23461,0.76481 -0.0807,-0.25391 -0.15787,-0.50922 -0.23461,-0.76481 z m 0.23461,0.76481 c 0.0487,0.15314 0.0993,0.30534 0.14935,0.45785 -0.0501,-0.15251 -0.1007,-0.30471 -0.14935,-0.45785 z m 0.14935,0.45785 c 0.0821,0.24994 0.16478,0.49952 0.25063,0.74776 -0.0858,-0.24822 -0.16857,-0.49783 -0.25063,-0.74776 z m 0.25063,0.74776 c 0.0543,0.15711 0.11055,0.31332 0.16639,0.46974 -0.0558,-0.1564 -0.11207,-0.31265 -0.16639,-0.46974 z m 0.16639,0.46974 c 0.0902,0.25278 0.1813,0.50509 0.27544,0.75603 -0.0941,-0.25093 -0.18519,-0.50326 -0.27544,-0.75603 z m 0.27544,0.75603 c 0.0524,0.1398 0.10655,0.27884 0.1602,0.41806 -0.0537,-0.13924 -0.10775,-0.27824 -0.1602,-0.41806 z m 0.1602,0.41806 c 0.10027,0.26022 0.202,0.51957 0.30644,0.77773 -0.10442,-0.25809 -0.20619,-0.51759 -0.30644,-0.77773 z m 0.30644,0.77773 c 0.0561,0.13871 0.11321,0.27685 0.17053,0.41496 -0.0573,-0.13809 -0.11442,-0.27627 -0.17053,-0.41496 z m 0.17053,0.41496 c 0.10283,0.2478 0.20755,0.49469 0.31419,0.74053 -0.10669,-0.24592 -0.21131,-0.49264 -0.31419,-0.74053 z m 0.31419,0.74053 c 0.0644,0.14843 0.12904,0.29671 0.19482,0.44441 -0.0658,-0.14767 -0.13044,-0.29602 -0.19482,-0.44441 z m 0.19482,0.44441 c 0.10904,0.24487 0.22052,0.48839 0.33332,0.73122 -0.11275,-0.2427 -0.22432,-0.48648 -0.33332,-0.73122 z m 0.33332,0.73122 c 0.064,0.13786 0.12802,0.27571 0.19327,0.4129 -0.0653,-0.13722 -0.12922,-0.27501 -0.19327,-0.4129 z m 0.19327,0.4129 c 0.11841,0.249 0.23939,0.49633 0.36173,0.74311 -0.12237,-0.24682 -0.24329,-0.49407 -0.36173,-0.74311 z m 0.36173,0.74311 c 0.0641,0.12918 0.12763,0.25848 0.19276,0.38705 -0.0651,-0.12856 -0.12872,-0.25788 -0.19276,-0.38705 z m 0.19276,0.38705 c 0.1309,0.25847 0.26478,0.51508 0.39997,0.77101 -0.13517,-0.25588 -0.26909,-0.51259 -0.39997,-0.77101 z m 0.39997,0.77101 c 0.0602,0.11406 0.11977,0.22856 0.18087,0.3421 -0.0611,-0.11355 -0.12062,-0.22803 -0.18087,-0.3421 z m 0.18087,0.3421 c 0.14315,0.26606 0.28996,0.53002 0.4377,0.79324 -0.14774,-0.26321 -0.29456,-0.5272 -0.4377,-0.79324 z m 0.4377,0.79324 c 0.0593,0.1057 0.11769,0.21204 0.17776,0.31729 -0.06,-0.10523 -0.11844,-0.2116 -0.17776,-0.31729 z m 0.17776,0.31729 c 0.15063,0.26391 0.30472,0.52557 0.45992,0.78651 -0.1552,-0.26093 -0.3093,-0.52262 -0.45992,-0.78651 z m 0.45992,0.78651 c 0.0604,0.10156 0.11978,0.20379 0.18087,0.30489 -0.0611,-0.1011 -0.12046,-0.20332 -0.18087,-0.30489 z m 0.18087,0.30489 c 0.16517,0.27335 0.3337,0.54445 0.50385,0.81443 -0.17019,-0.27003 -0.33865,-0.54104 -0.50385,-0.81443 z m 0.50385,0.81443 c 0.0532,0.0844 0.10497,0.16967 0.15864,0.25373 -0.0537,-0.084 -0.10547,-0.16936 -0.15864,-0.25373 z m 0.15864,0.25373 c 0.20712,0.32439 0.41829,0.64594 0.63252,0.96531 -0.21422,-0.31934 -0.42541,-0.64095 -0.63252,-0.96531 z m 13.82086,-16.81551 c 0.0649,0.1846 0.13166,0.36847 0.19999,0.55138 -0.0684,-0.18306 -0.135,-0.36663 -0.19999,-0.55138 z m 0.19999,0.55138 c 0.0121,0.0323 0.0245,0.0644 0.0367,0.0966 -0.0122,-0.0322 -0.0246,-0.0643 -0.0367,-0.0966 z m 0.0367,0.0966 c 0.0707,0.1874 0.14278,0.37408 0.21705,0.55965 -0.0742,-0.18552 -0.14633,-0.3723 -0.21705,-0.55965 z m 0.21705,0.55965 c 0.40625,1.01516 0.86459,2.00281 1.37252,2.95951 -0.50788,-0.95668 -0.96633,-1.94437 -1.37252,-2.95951 z m 1.37252,2.95951 c 0.0908,0.17098 0.1836,0.34054 0.2775,0.50953 -0.0939,-0.16891 -0.18677,-0.33862 -0.2775,-0.50953 z m 0.2775,0.50953 c 0.0197,0.0355 0.0391,0.0711 0.0589,0.10646 -0.0198,-0.0354 -0.0392,-0.071 -0.0589,-0.10646 z m 0.0589,0.10646 c 0.0918,0.16367 0.18538,0.32606 0.28009,0.48782 -0.0947,-0.16179 -0.18827,-0.32411 -0.28009,-0.48782 z m 0.3142,0.54622 c 0.10344,0.17577 0.20839,0.35054 0.31522,0.52399 -0.10682,-0.17344 -0.21179,-0.34823 -0.31522,-0.52399 z m 0.31884,0.5302 c 0.11059,0.17945 0.22276,0.35793 0.33693,0.53485 -0.11421,-0.17699 -0.22631,-0.35533 -0.33693,-0.53485 z m 0.36277,0.57412 c 0.34455,0.53212 0.70496,1.0529 1.08107,1.56115 -0.3761,-0.50824 -0.73654,-1.02904 -1.08107,-1.56115 z m 1.08107,1.56115 c 0.11439,0.15458 0.23055,0.30763 0.34778,0.45992 -0.11716,-0.15221 -0.23345,-0.30543 -0.34778,-0.45992 z m 0.40153,0.5302 c 0.10897,0.14072 0.21987,0.27985 0.33124,0.41858 -0.11137,-0.13872 -0.22228,-0.27787 -0.33124,-0.41858 z m 0.33124,0.41858 c 0.0306,0.0381 0.0612,0.0762 0.092,0.1142 -0.0308,-0.038 -0.0614,-0.0761 -0.092,-0.1142 z m 0.092,0.1142 c 0.11339,0.13986 0.22783,0.27874 0.34364,0.41651 -0.11587,-0.13783 -0.23019,-0.27658 -0.34364,-0.41651 z m 0.34364,0.41651 c 0.02,0.0238 0.0399,0.0476 0.0599,0.0713 -0.0201,-0.0237 -0.04,-0.0475 -0.0599,-0.0713 z m 0.0599,0.0713 c 0.12522,0.14803 0.25183,0.29472 0.37982,0.44028 -0.12792,-0.1455 -0.25466,-0.29233 -0.37982,-0.44028 z"
       style="color:#000000;font-style:normal;font-variant:normal;font-weight:normal;font-stretch:normal;font-size:medium;line-height:normal;font-family:sans-serif;font-variant-ligatures:normal;font-variant-position:normal;font-variant-caps:normal;font-variant-numeric:normal;font-variant-alternates:normal;font-variant-east-asian:normal;font-feature-settings:normal;font-variation-settings:normal;text-indent:0;text-align:start;text-decoration:none;text-decoration-line:none;text-decoration-style:solid;text-decoration-color:#000000;letter-spacing:normal;word-spacing:normal;text-transform:none;writing-mode:lr-tb;direction:ltr;text-orientation:mixed;dominant-baseline:auto;baseline-shift:baseline;text-anchor:start;white-space:normal;shape-padding:0;shape-margin:0;inline-size:0;clip-rule:nonzero;display:inline;overflow:visible;visibility:visible;opacity:1;isolation:auto;mix-blend-mode:normal;color-interpolation:sRGB;color-interpolation-filters:linearRGB;solid-color:#000000;solid-opacity:1;vector-effect:none;fill:#bf212f;fill-opacity:1;fill-rule:nonzero;stroke:none;stroke-width:20;stroke-linecap:butt;stroke-linejoin:miter;stroke-miterlimit:4;stroke-dasharray:none;stroke-dashoffset:0;stroke-opacity:1;color-rendering:auto;image-rendering:auto;shape-rendering:auto;text-rendering:auto;enable-background:accumulate;stop-color:#000000;stop-opacity:1"
       id="path921" />
    <path
       id="path1011"
       style="fill:#efc743;fill-opacity:1;stroke:none;stroke-width:15.6026;stroke-miterlimit:4;stroke-dasharray:none;stroke-opacity:1"
       inkscape:transform-center-x="4.3306174"
       inkscape:transform-center-y="1.1680025"
       d="m 234.67932,-130.51191 -1.31562,18.40555 -0.2855,3.99477 c -5.18421,-5.48442 -11.56085,-9.8027 -18.66582,-12.55454 l 3.66943,-1.78251 z"
       inkscape:connector-curvature="0" />
    <path
       id="path1015"
       style="fill:#efc743;fill-opacity:1;stroke:none;stroke-width:15.6026;stroke-miterlimit:4;stroke-dasharray:none;stroke-opacity:1"
       inkscape:transform-center-x="0.2910429"
       inkscape:transform-center-y="-1.357918"
       d="m 85.508297,-164.38981 10.29964,15.31057 2.235456,3.323 c -7.462118,-1.12775 -15.145422,-0.60237 -22.437733,1.60569 l 1.792999,-3.66434 z"
       inkscape:connector-curvature="0" />
    <path
       inkscape:connector-curvature="0"
       d="m 148.2129,-164.41197 -10.29964,15.31056 -2.23546,3.323 c 7.46212,-1.12775 15.14542,-0.60237 22.43773,1.6057 l -1.793,-3.66434 z"
       inkscape:transform-center-y="-1.357918"
       inkscape:transform-center-x="-0.2910429"
       style="fill:#efc743;fill-opacity:1;stroke:none;stroke-width:15.6026;stroke-miterlimit:4;stroke-dasharray:none;stroke-opacity:1"
       id="path1017" />
  </g>
</svg>
