<?xml version="1.0" encoding="UTF-8" standalone="no"?>
<svg
   xmlns:dc="http://purl.org/dc/elements/1.1/"
   xmlns:cc="http://creativecommons.org/ns#"
   xmlns:rdf="http://www.w3.org/1999/02/22-rdf-syntax-ns#"
   xmlns:svg="http://www.w3.org/2000/svg"
   xmlns="http://www.w3.org/2000/svg"
   xmlns:sodipodi="http://sodipodi.sourceforge.net/DTD/sodipodi-0.dtd"
   xmlns:inkscape="http://www.inkscape.org/namespaces/inkscape"
   inkscape:export-filename="/home/xbello/Projects/bio/media/favicon.png"
   width="254.94mm"
   height="146.29535mm"
   viewBox="0 0 254.94 146.29535"
   version="1.1"
   id="svg8"
   sodipodi:docname="logo.svg"
   inkscape:version="1.0 (4035a4fb49, 2020-05-01)"
   inkscape:export-xdpi="17.111027"
   inkscape:export-ydpi="17.111027">
  <defs
     id="defs2">
    <inkscape:path-effect
       fuse_tolerance="0"
       hide_knot="false"
       vertical_pattern="false"
       prop_units="false"
       tang_offset="0"
       normal_offset="0"
       spacing="25"
       scale_y_rel="true"
       prop_scale="0.8"
       copytype="repeated"
       pattern="m -134.75235,99.341397 -86.84856,-4e-6 -86.84856,3e-6 43.42429,-75.213057 43.42427,-75.213063 43.42428,75.213061 z"
       lpeversion="1"
       is_visible="true"
       id="path-effect1253"
       effect="skeletal" />
    <inkscape:path-effect
       update_on_knot_move="true"
       attempt_force_join="true"
       miter_limit="4"
       offset="20"
       unit="mm"
       linejoin_type="miter"
       lpeversion="1"
       is_visible="true"
       id="path-effect1251"
       effect="offset" />
    <inkscape:path-effect
       fuse_tolerance="0"
       hide_knot="false"
       vertical_pattern="false"
       prop_units="false"
       tang_offset="0"
       normal_offset="0"
       spacing="0"
       scale_y_rel="false"
       prop_scale="1"
       copytype="repeated_stretched"
       pattern="m -134.75235,99.341397 -86.84856,-4e-6 -86.84856,3e-6 43.42429,-75.213057 43.42427,-75.213063 43.42428,75.213061 z"
       lpeversion="1"
       is_visible="true"
       id="path-effect1242"
       effect="skeletal" />
    <inkscape:path-effect
       fuse_tolerance="0"
       hide_knot="false"
       vertical_pattern="false"
       prop_units="false"
       tang_offset="0"
       normal_offset="0"
       spacing="0"
       scale_y_rel="false"
       prop_scale="1"
       copytype="single_stretched"
       pattern="M 0,0 H 1"
       lpeversion="1"
       is_visible="true"
       id="path-effect1222"
       effect="skeletal" />
    <inkscape:path-effect
       fuse_tolerance="0"
       hide_knot="false"
       vertical_pattern="false"
       prop_units="false"
       tang_offset="0"
       normal_offset="1"
       spacing="0"
       scale_y_rel="true"
       prop_scale="0.6"
       copytype="repeated_stretched"
       pattern="m -134.75235,99.341397 -86.84856,-4e-6 -86.84856,3e-6 43.42429,-75.213057 43.42427,-75.213063 43.42428,75.213061 z"
       lpeversion="1"
       is_visible="true"
       id="path-effect1215"
       effect="skeletal" />
    <inkscape:path-effect
       fuse_tolerance="0"
       hide_knot="false"
       vertical_pattern="false"
       prop_units="false"
       tang_offset="0"
       normal_offset="0"
       spacing="5"
       scale_y_rel="false"
       prop_scale="1"
       copytype="repeated"
       pattern="m -134.75235,99.341397 -86.84856,-4e-6 -86.84856,3e-6 43.42429,-75.213057 43.42427,-75.213063 43.42428,75.213061 z"
       lpeversion="1"
       is_visible="true"
       id="path-effect1196"
       effect="skeletal" />
    <inkscape:path-effect
       update_on_knot_move="true"
       attempt_force_join="true"
       miter_limit="4"
       offset="6.8"
       unit="mm"
       linejoin_type="miter"
       lpeversion="1"
       is_visible="true"
       id="path-effect1188"
       effect="offset" />
  </defs>
  <sodipodi:namedview
     inkscape:bbox-nodes="true"
     inkscape:snap-bbox-midpoints="true"
     inkscape:snap-object-midpoints="true"
     inkscape:snap-midpoints="true"
     inkscape:snap-bbox-edge-midpoints="true"
     inkscape:snap-bbox="true"
     inkscape:object-paths="false"
     fit-margin-bottom="0.1"
     fit-margin-right="0.1"
     fit-margin-left="0.1"
     fit-margin-top="0.1"
     inkscape:snap-intersection-paths="true"
     inkscape:window-maximized="1"
     inkscape:window-y="48"
     inkscape:window-x="0"
     inkscape:window-height="2084"
     inkscape:window-width="3840"
     showgrid="false"
     inkscape:document-rotation="0"
     inkscape:current-layer="layer1"
     inkscape:document-units="mm"
     inkscape:cy="7.467275"
     inkscape:cx="252.23279"
     inkscape:zoom="0.73780297"
     inkscape:pageshadow="2"
     inkscape:pageopacity="0.0"
     borderopacity="1.0"
     bordercolor="#666666"
     pagecolor="#ffffff"
     id="base"
     lock-margins="true" />
  <metadata
     id="metadata5">
    <rdf:RDF>
      <cc:Work
         rdf:about="">
        <dc:format>image/svg+xml</dc:format>
        <dc:type
           rdf:resource="http://purl.org/dc/dcmitype/StillImage" />
        <dc:title></dc:title>
      </cc:Work>
    </rdf:RDF>
  </metadata>
  <g
     transform="translate(10.710859,167.75958)"
     id="layer1"
     inkscape:groupmode="layer"
     inkscape:label="Capa 1">
    <path
       inkscape:connector-curvature="0"
       id="path892"
       d="m 40.02,-122.82791 c -27.844962,0 -50.630859,22.7859 -50.630859,50.630863 2e-6,27.84496 22.785898,50.63281 50.630859,50.63281 27.844963,0 50.632811,-22.78785 50.632811,-50.63281 0,-27.844963 -22.787847,-50.630863 -50.632811,-50.630863 z m 0,20 c 17.036162,0 30.632813,13.594703 30.632813,30.630863 -10e-7,17.03616 -13.596652,30.63281 -30.632813,30.63281 -17.03616,0 -30.6308573,-13.59665 -30.6308583,-30.63281 0,-17.03616 13.5946973,-30.630863 30.6308583,-30.630863 z"
       style="color:#000000;font-style:normal;font-variant:normal;font-weight:normal;font-stretch:normal;font-size:medium;line-height:normal;font-family:sans-serif;font-variant-ligatures:normal;font-variant-position:normal;font-variant-caps:normal;font-variant-numeric:normal;font-variant-alternates:normal;font-variant-east-asian:normal;font-feature-settings:normal;font-variation-settings:normal;text-indent:0;text-align:start;text-decoration:none;text-decoration-line:none;text-decoration-style:solid;text-decoration-color:#000000;letter-spacing:normal;word-spacing:normal;text-transform:none;writing-mode:lr-tb;direction:ltr;text-orientation:mixed;dominant-baseline:auto;baseline-shift:baseline;text-anchor:start;white-space:normal;shape-padding:0;shape-margin:0;inline-size:0;clip-rule:nonzero;display:inline;overflow:visible;visibility:visible;isolation:auto;mix-blend-mode:normal;color-interpolation:sRGB;color-interpolation-filters:linearRGB;solid-color:#000000;solid-opacity:1;vector-effect:none;fill:#264b96;fill-opacity:1;fill-rule:nonzero;stroke:none;stroke-width:20;stroke-linecap:butt;stroke-linejoin:miter;stroke-miterlimit:4;stroke-dasharray:none;stroke-dashoffset:0;stroke-opacity:1;color-rendering:auto;image-rendering:auto;shape-rendering:auto;text-rendering:auto;enable-background:accumulate;stop-color:#000000" />
    <path
       inkscape:connector-curvature="0"
       id="path932"
       style="color:#000000;font-style:normal;font-variant:normal;font-weight:normal;font-stretch:normal;font-size:medium;line-height:normal;font-family:sans-serif;font-variant-ligatures:normal;font-variant-position:normal;font-variant-caps:normal;font-variant-numeric:normal;font-variant-alternates:normal;font-variant-east-asian:normal;font-feature-settings:normal;font-variation-settings:normal;text-indent:0;text-align:start;text-decoration:none;text-decoration-line:none;text-decoration-style:solid;text-decoration-color:#000000;letter-spacing:normal;word-spacing:normal;text-transform:none;writing-mode:lr-tb;direction:ltr;text-orientation:mixed;dominant-baseline:auto;baseline-shift:baseline;text-anchor:start;white-space:normal;shape-padding:0;shape-margin:0;inline-size:0;clip-rule:nonzero;display:inline;overflow:visible;visibility:visible;isolation:auto;mix-blend-mode:normal;color-interpolation:sRGB;color-interpolation-filters:linearRGB;solid-color:#000000;solid-opacity:1;vector-effect:none;fill:#006f3c;fill-opacity:1;fill-rule:nonzero;stroke:none;stroke-width:20;stroke-linecap:butt;stroke-linejoin:miter;stroke-miterlimit:4;stroke-dasharray:none;stroke-dashoffset:0;stroke-opacity:1;color-rendering:auto;image-rendering:auto;shape-rendering:auto;text-rendering:auto;enable-background:accumulate;stop-color:#000000"
       d="m 91.357981,-142.23311 c -27.844961,0 -50.633082,22.78605 -50.633082,50.631013 0,16.79766 8.295079,31.75195 20.988383,40.97631 4.823563,-4.81824 8.027789,-11.25657 8.772591,-18.47277 -6.017377,-5.57762 -9.760646,-13.56632 -9.760646,-22.50354 0,-17.036163 13.596596,-30.631203 30.632754,-30.631203 17.036159,0 30.630689,13.59504 30.630689,30.631203 0,17.03616 -13.59453,30.63276 -30.630689,30.63276 -0.66837,0 -1.33082,-0.0239 -1.98799,-0.0651 -1.60036,6.94485 -4.63956,13.35589 -8.784478,18.89911 3.474648,0.76073 7.078418,1.16582 10.772468,1.16582 27.844959,-1e-5 50.631019,-22.7876 50.631019,-50.63257 0,-27.844963 -22.78606,-50.631003 -50.631019,-50.631013 z M 80.585513,-42.135347 c -6.484218,-1.41965 -12.513797,-4.09074 -17.820616,-7.7463 5.306904,3.65572 11.336369,6.32665 17.820616,7.7463 z m -17.820616,-7.7463 c -0.352962,-0.24313 -0.702543,-0.49082 -1.04903,-0.74259 0.346464,0.25175 0.696087,0.49946 1.04903,0.74259 z m 26.605094,-11.15281 c -0.22831,-0.0143 -0.45579,-0.0309 -0.68265,-0.0501 0.22683,0.0192 0.45438,0.0358 0.68265,0.0501 z m -0.68265,-0.0501 c -1.36116,-0.11523 -2.69582,-0.31773 -3.9982,-0.60203 1.30247,0.28438 2.63699,0.48679 3.9982,0.60203 z m -3.9982,-0.60203 c -1.7365,-0.37908 -3.416029,-0.90396 -5.025018,-1.56063 1.609212,0.65688 3.288298,1.18143 5.025018,1.56063 z m -5.025018,-1.56063 c -0.201123,-0.0821 -0.401064,-0.16599 -0.599964,-0.25218 0.198816,0.0862 0.398928,0.17012 0.599964,0.25218 z m -0.599964,-0.25218 c -1.392301,-0.60333 -2.729566,-1.30667 -4.002855,-2.10116 1.273323,0.79456 2.610509,1.49772 4.002855,2.10116 z m -4.002855,-2.10116 c -1.449358,-0.90436 -2.815809,-1.92693 -4.086571,-3.0546 1.27082,1.12774 2.63707,2.15009 4.086571,3.0546 z m -4.575431,-3.49798 c 0.15182,0.14072 0.305226,0.27991 0.45992,0.41754 -0.154747,-0.13767 -0.30805,-0.27677 -0.45992,-0.41754 z" />
    <path
       inkscape:connector-curvature="0"
       d="m 142.69387,-141.93648 c -27.84497,-1e-5 -50.633089,22.78604 -50.633089,50.631003 0,10.66848 3.34825,20.5926 9.041309,28.77913 6.55718,-2.16766 12.10099,-6.47333 15.82591,-12.10883 -3.08314,-4.78454 -4.86689,-10.50163 -4.86689,-16.6703 0,-17.036163 13.59659,-30.630693 30.63276,-30.630683 17.03615,0 30.63275,13.59453 30.63275,30.630683 0,17.03617 -13.5966,30.63276 -30.63275,30.63276 -3.53868,0 -6.92813,-0.58845 -10.07897,-1.6707 -4.1858,5.87484 -9.59269,10.82631 -15.83935,14.48077 7.59435,4.5602 16.46388,7.19026 25.91832,7.19026 27.84496,0 50.63256,-22.78813 50.63256,-50.63309 0,-27.844963 -22.7876,-50.631003 -50.63256,-50.631003 z m -25.91832,94.073833 c -2.31898,-1.39249 -4.51854,-2.96532 -6.57944,-4.69842 2.06103,1.73317 4.26051,3.30596 6.57944,4.69842 z m -6.57944,-4.69842 c -0.0153,-0.0129 -0.0307,-0.0258 -0.046,-0.0388 0.0153,0.0129 0.0306,0.0258 0.046,0.0388 z m -0.046,-0.0388 c -0.33513,-0.28249 -0.66658,-0.56899 -0.99426,-0.85989 0.32766,0.29088 0.65915,0.57742 0.99426,0.85989 z m -0.99426,-0.85989 c -0.33653,-0.29877 -0.66938,-0.60205 -0.99787,-0.90951 0.32863,0.30758 0.66119,0.61062 0.99787,0.90951 z m -0.99787,-0.90951 c -2.62712,-2.4589 -4.9939,-5.1928 -7.05383,-8.15454 2.05992,2.96172 4.4265,5.69549 7.05383,8.15454 z m 24.45691,-7.97419 c -0.8157,-0.28018 -1.61525,-0.59345 -2.39728,-0.93844 0.78207,0.34504 1.58154,0.65825 2.39728,0.93844 z m -2.39728,-0.93844 c -0.18011,-0.0795 -0.3592,-0.16112 -0.53743,-0.24392 0.17829,0.0828 0.35725,0.16442 0.53743,0.24392 z m -0.53743,-0.24392 c -0.0243,-0.0113 -0.0486,-0.0223 -0.0729,-0.0336 0.0242,0.0113 0.0486,0.0223 0.0729,0.0336 z m -0.0729,-0.0336 c -0.17983,-0.0841 -0.35855,-0.16987 -0.5364,-0.25734 0.17782,0.0875 0.3566,0.17323 0.5364,0.25734 z m -12.67933,-11.07581 c 0.22891,0.35524 0.46491,0.70532 0.70797,1.05007 -0.24308,-0.34478 -0.47904,-0.69479 -0.70797,-1.05007 z m 0.70797,1.05007 c 0.23863,0.33849 0.48449,0.6709 0.73638,0.9989 -0.25177,-0.32784 -0.49786,-0.66058 -0.73638,-0.9989 z m 0.73638,0.9989 c 0.008,0.011 0.0168,0.0221 0.0253,0.0331 -0.008,-0.011 -0.0169,-0.0221 -0.0253,-0.0331 z m 0.0253,0.0331 c 0.24696,0.32066 0.49985,0.63646 0.75913,0.94671 -0.25933,-0.3103 -0.51213,-0.626 -0.75913,-0.94671 z m 0.75913,0.94671 c 0.0165,0.0198 0.0335,0.0392 0.0501,0.0589 -0.0166,-0.0197 -0.0336,-0.0391 -0.0501,-0.0589 z m 0.0501,0.0589 c 0.53139,0.63259 1.08756,1.24358 1.66811,1.83038 -0.58058,-0.58678 -1.13669,-1.19779 -1.66811,-1.83038 z m 1.66811,1.83038 c 0.29011,0.29323 0.5865,0.58021 0.88832,0.86145 -0.30185,-0.28123 -0.59819,-0.56823 -0.88832,-0.86145 z m 0.88832,0.86145 c 0.0118,0.011 0.0233,0.0221 0.0351,0.0331 -0.0118,-0.011 -0.0234,-0.0221 -0.0351,-0.0331 z m 0.0351,0.0331 c 0.30201,0.28052 0.60962,0.55504 0.92294,0.8232 -0.31324,-0.26806 -0.621,-0.54278 -0.92294,-0.8232 z m 0.92501,0.82475 c 0.63124,0.54017 1.28523,1.05429 1.96009,1.54203 -0.67492,-0.48772 -1.3288,-1.00187 -1.96009,-1.54203 z m 1.96009,1.54203 c 0.0137,0.01 0.0271,0.0201 0.0408,0.03 -0.0137,-0.01 -0.0271,-0.0201 -0.0408,-0.03 z m 0.0408,0.03 c 0.33506,0.24131 0.6754,0.47599 1.02061,0.70383 -0.3452,-0.2278 -0.68556,-0.46256 -1.02061,-0.70383 z m 1.03921,0.71572 c 0.17188,0.11326 0.34451,0.225 0.51883,0.33486 -0.17421,-0.10978 -0.34705,-0.22168 -0.51883,-0.33486 z m 0.51883,0.33486 c 0.71544,0.45088 1.45144,0.87297 2.20607,1.26453 -0.75469,-0.39154 -1.49058,-0.81368 -2.20607,-1.26453 z m 2.20607,1.26453 c 0.18351,0.0952 0.36826,0.18849 0.55397,0.28008 -0.18575,-0.0916 -0.37042,-0.18486 -0.55397,-0.28008 z"
       style="color:#000000;font-style:normal;font-variant:normal;font-weight:normal;font-stretch:normal;font-size:medium;line-height:normal;font-family:sans-serif;font-variant-ligatures:normal;font-variant-position:normal;font-variant-caps:normal;font-variant-numeric:normal;font-variant-alternates:normal;font-variant-east-asian:normal;font-feature-settings:normal;font-variation-settings:normal;text-indent:0;text-align:start;text-decoration:none;text-decoration-line:none;text-decoration-style:solid;text-decoration-color:#000000;letter-spacing:normal;word-spacing:normal;text-transform:none;writing-mode:lr-tb;direction:ltr;text-orientation:mixed;dominant-baseline:auto;baseline-shift:baseline;text-anchor:start;white-space:normal;shape-padding:0;shape-margin:0;inline-size:0;clip-rule:nonzero;display:inline;overflow:visible;visibility:visible;isolation:auto;mix-blend-mode:normal;color-interpolation:sRGB;color-interpolation-filters:linearRGB;solid-color:#000000;solid-opacity:1;vector-effect:none;fill:#f9a73e;fill-opacity:1;fill-rule:nonzero;stroke:none;stroke-width:20;stroke-linecap:butt;stroke-linejoin:miter;stroke-miterlimit:4;stroke-dasharray:none;stroke-dashoffset:0;stroke-opacity:1;color-rendering:auto;image-rendering:auto;shape-rendering:auto;text-rendering:auto;enable-background:accumulate;stop-color:#000000"
       id="path934" />
    <path
       id="path912"
       style="color:#000000;font-style:normal;font-variant:normal;font-weight:normal;font-stretch:normal;font-size:medium;line-height:normal;font-family:sans-serif;font-variant-ligatures:normal;font-variant-position:normal;font-variant-caps:normal;font-variant-numeric:normal;font-variant-alternates:normal;font-variant-east-asian:normal;font-feature-settings:normal;font-variation-settings:normal;text-indent:0;text-align:start;text-decoration:none;text-decoration-line:none;text-decoration-style:solid;text-decoration-color:#000000;letter-spacing:normal;word-spacing:normal;text-transform:none;writing-mode:lr-tb;direction:ltr;text-orientation:mixed;dominant-baseline:auto;baseline-shift:baseline;text-anchor:start;white-space:normal;shape-padding:0;shape-margin:0;inline-size:0;clip-rule:nonzero;display:inline;overflow:visible;visibility:visible;opacity:1;isolation:auto;mix-blend-mode:normal;color-interpolation:sRGB;color-interpolation-filters:linearRGB;solid-color:#000000;solid-opacity:1;vector-effect:none;fill:#bf212f;fill-opacity:1;fill-rule:nonzero;stroke:none;stroke-width:75.5906;stroke-linecap:butt;stroke-linejoin:miter;stroke-miterlimit:4;stroke-dasharray:none;stroke-dashoffset:0;stroke-opacity:1;color-rendering:auto;image-rendering:auto;shape-rendering:auto;text-rendering:auto;enable-background:accumulate;stop-color:#000000;stop-opacity:1"
       d="m 773.49414,157.75781 c -104.29901,0 -189.30078,86.06114 -189.30078,190.77735 0,14.82126 1.70641,29.26793 4.92578,43.15039 27.70901,-2.25262 52.51913,-14.07708 71.16797,-32.20508 -0.32786,-3.60023 -0.50391,-7.24973 -0.50391,-10.94531 0,-64.25642 50.66026,-115.1875 113.71094,-115.1875 63.05065,0 113.7109,50.93108 113.71094,115.1875 0,64.25641 -50.66029,115.17969 -113.71094,115.17968 -31.57253,1e-5 -60.0364,-12.76988 -80.58984,-33.58789 -20.78463,15.40041 -44.75815,26.70772 -70.70899,32.69336 34.58769,46.32852 89.55934,76.48438 151.29883,76.48438 104.29901,10e-6 189.30274,-86.05332 189.30274,-190.76953 -4e-5,-104.71621 -85.00373,-190.77735 -189.30274,-190.77735 z m -151.29883,305.0625 c -3.88496,-5.20371 -7.51192,-10.6113 -10.86328,-16.20312 3.35118,5.59209 6.97829,10.99937 10.86328,16.20312 z M 660.53516,361.9082 c 0.01,0.0885 0.0192,0.17717 0.0293,0.26563 -0.0101,-0.0884 -0.0194,-0.17712 -0.0293,-0.26563 z m 4.00195,19.95703 c 0.0235,0.08 0.0467,0.16029 0.0703,0.24024 -0.0236,-0.08 -0.0468,-0.16019 -0.0703,-0.24024 z m 0.7207,2.36133 c 0.0404,0.12769 0.0803,0.25533 0.1211,0.38282 -0.0408,-0.12739 -0.0807,-0.25523 -0.1211,-0.38282 z m 0.77735,2.3711 c 0.0573,0.1683 0.11578,0.33596 0.17382,0.5039 -0.058,-0.16792 -0.11651,-0.33561 -0.17382,-0.5039 z m -76.86524,5.29492 c 0.35789,1.53542 0.73221,3.06463 1.12696,4.58594 -0.39482,-1.52149 -0.76902,-3.05032 -1.12696,-4.58594 z m 1.2832,5.16015 c 0.36297,1.38098 0.73791,2.75615 1.13086,4.125 -0.39276,-1.36811 -0.76806,-2.74476 -1.13086,-4.125 z m 80.09376,0.8086 c 0.077,0.16642 0.15265,0.33402 0.23046,0.5 -0.0779,-0.166 -0.15338,-0.33356 -0.23046,-0.5 z m 1.02148,2.14453 c 0.11156,0.22843 0.22097,0.45801 0.33398,0.68555 -0.11308,-0.22763 -0.22234,-0.45704 -0.33398,-0.68555 z m -79.68359,2.18945 c 0.35641,1.21588 0.71978,2.42887 1.09961,3.63477 -0.37993,-1.20611 -0.74312,-2.41868 -1.09961,-3.63477 z m 80.80859,0.0508 c 0.1331,0.25807 0.26542,0.51656 0.40039,0.77344 -0.13494,-0.25673 -0.26732,-0.51551 -0.40039,-0.77344 z m 1.14648,2.16797 c 0.17564,0.32336 0.35265,0.6454 0.53125,0.9668 -0.1787,-0.32147 -0.35552,-0.64337 -0.53125,-0.9668 z m 1.28125,2.29883 c 0.15095,0.26328 0.30409,0.5252 0.45703,0.78711 -0.15295,-0.26186 -0.30607,-0.52388 -0.45703,-0.78711 z m -81.73047,0.36719 c 0.36118,1.11959 0.72821,2.23703 1.10938,3.34765 -0.38133,-1.11093 -0.74806,-2.22775 -1.10938,-3.34765 z m 83.07422,1.91601 c 0.1259,0.20826 0.25565,0.41374 0.38282,0.6211 -0.1272,-0.20735 -0.25689,-0.41285 -0.38282,-0.6211 z m -81.46289,2.86133 c 0.36468,1.03563 0.73526,2.06819 1.11719,3.0957 -0.38186,-1.0272 -0.75256,-2.06038 -1.11719,-3.0957 z m 1.68946,4.60938 c 0.38771,1.01653 0.78303,2.02885 1.1875,3.03711 -0.40439,-1.00793 -0.79986,-2.02091 -1.1875,-3.03711 z m 84.9375,0.32617 c 0.12535,0.17353 0.2487,0.34871 0.375,0.52148 -0.12632,-0.17277 -0.24963,-0.34795 -0.375,-0.52148 z m 1.3125,1.78125 c 0.22492,0.29898 0.44998,0.59791 0.67773,0.89453 -0.22788,-0.29674 -0.45269,-0.59544 -0.67773,-0.89453 z m 1.52734,1.98437 c 0.25317,0.32158 0.50717,0.64224 0.76367,0.96094 -0.25635,-0.31847 -0.51065,-0.63959 -0.76367,-0.96094 z m -85.99023,0.41993 c 0.41959,1.0212 0.84654,2.0384 1.2832,3.05078 -0.43682,-1.01259 -0.86346,-2.02935 -1.2832,-3.05078 z m 87.5996,1.58007 c 0.25173,0.30535 0.50692,0.60756 0.76172,0.91016 -0.25492,-0.30271 -0.50987,-0.6047 -0.76172,-0.91016 z m 1.72657,2.04493 c 0.20491,0.23699 0.41232,0.47179 0.61914,0.70703 -0.20676,-0.23516 -0.41428,-0.47012 -0.61914,-0.70703 z m -87.45508,0.77539 c 0.44896,1.01921 0.90693,2.03305 1.37305,3.04297 -0.46604,-1.00959 -0.92416,-2.02409 -1.37305,-3.04297 z m 89.13867,1.13086 c 0.21088,0.23316 0.42591,0.46199 0.63867,0.69335 -0.21276,-0.23135 -0.42779,-0.4602 -0.63867,-0.69335 z m -87.12305,3.29296 c 0.49468,1.04972 1.0006,2.09355 1.51368,3.13282 -0.51326,-1.03949 -1.01882,-2.08287 -1.51368,-3.13282 z m 2.06836,4.25391 c 0.55407,1.10407 1.12068,2.20112 1.69532,3.29297 -0.57472,-1.09184 -1.14117,-2.1889 -1.69532,-3.29297 z m 2.20899,4.26953 c 0.61422,1.15092 1.24206,2.29284 1.8789,3.42969 -0.63689,-1.13679 -1.26463,-2.27883 -1.8789,-3.42969 z m 2.30273,4.19141 c 0.73864,1.30462 1.49365,2.59932 2.26172,3.88476 -0.76802,-1.28522 -1.52312,-2.58037 -2.26172,-3.88476 z"
       transform="matrix(0.26458333,0,0,0.26458333,-10.610859,-164.41197)"
       inkscape:connector-curvature="0" />
    <path
       transform="matrix(0.26458333,0,0,0.26458333,-10.710859,-163.60918)"
       d="m 1.9101562,123.03711 20.5332028,86.95703 c 4.994313,-6.22686 10.314822,-12.19177 15.958985,-17.83594 16.62825,-16.62824 35.958565,-30.54647 56.996094,-41.04882 z"
       inkscape:transform-center-y="3.4541917"
       inkscape:transform-center-x="-4.3230778"
       style="fill:#efc743;fill-opacity:1;stroke-width:55.1811;stroke-linecap:round"
       id="path1260" />
    <path
       transform="matrix(0.26458333,0,0,0.26458333,-10.710859,-163.60918)"
       d="M 961.83984,123.03711 868.29883,151.125 c 21.29872,10.56653 40.83254,24.68389 57.57226,41.57227 5.44961,5.498 10.59196,11.29712 15.42579,17.34375 z"
       inkscape:transform-center-y="3.4541917"
       inkscape:transform-center-x="4.3230774"
       style="fill:#efc743;fill-opacity:1;stroke-width:55.1811;stroke-linecap:round"
       id="path1262" />
    <path
       transform="matrix(0.26458333,0,0,0.26458333,-10.710859,-163.60918)"
       d="m 331.14648,-15.308594 -29.29492,87.419922 c 26.46897,-11.181034 55.18304,-17.021484 83.91992,-17.021484 2.58099,10e-7 5.16124,0.06425 7.74024,0.158203 z"
       inkscape:transform-center-y="-4.776003"
       inkscape:transform-center-x="-2.9899887"
       style="fill:#efc743;fill-opacity:1;stroke-width:55.1811;stroke-linecap:round"
       id="path1264" />
    <path
       transform="matrix(0.26458333,0,0,0.26458333,-10.710859,-163.60918)"
       d="m 628.19141,-15.308594 -63.72657,72.095703 c 5.10202,-0.367702 10.21606,-0.576173 15.33204,-0.576171 26.30357,-10e-7 52.58954,4.892603 77.15234,14.292968 z"
       inkscape:transform-center-y="-4.776003"
       inkscape:transform-center-x="2.989989"
       style="fill:#efc743;fill-opacity:1;stroke-width:55.1811;stroke-linecap:round"
       id="path1294" />
  </g>
</svg>
