<?xml version="1.0" encoding="UTF-8" standalone="no"?>
<svg
   width="589.15pt"
   height="313.27pt"
   version="1.1"
   viewBox="0 0 589.15 313.27"
   id="svg1494"
   sodipodi:docname="PhredVsErrorInkscape.svg"
   inkscape:version="1.1 (c68e22c387, 2021-05-23)"
   xmlns:inkscape="http://www.inkscape.org/namespaces/inkscape"
   xmlns:sodipodi="http://sodipodi.sourceforge.net/DTD/sodipodi-0.dtd"
   xmlns:xlink="http://www.w3.org/1999/xlink"
   xmlns="http://www.w3.org/2000/svg"
   xmlns:svg="http://www.w3.org/2000/svg">
  <sodipodi:namedview
     id="namedview1496"
     pagecolor="#ffffff"
     bordercolor="#666666"
     borderopacity="1.0"
     inkscape:pageshadow="2"
     inkscape:pageopacity="0.0"
     inkscape:pagecheckerboard="0"
     inkscape:document-units="pt"
     showgrid="false"
     inkscape:zoom="1.3673451"
     inkscape:cx="394.19456"
     inkscape:cy="247.19436"
     inkscape:window-width="3840"
     inkscape:window-height="2084"
     inkscape:window-x="0"
     inkscape:window-y="48"
     inkscape:window-maximized="1"
     inkscape:current-layer="svg1494" />
  <defs
     id="defs1296">
    <symbol
       id="a"
       overflow="visible">
      <path
         d="m2.5469-5.3125c-0.40625 0-0.71484 0.20312-0.92188 0.60938-0.19922 0.39844-0.29688 0.99609-0.29688 1.7969 0 0.79297 0.097656 1.3906 0.29688 1.7969 0.20703 0.39844 0.51562 0.59375 0.92188 0.59375s0.70703-0.19531 0.90625-0.59375c0.20703-0.40625 0.3125-1.0039 0.3125-1.7969 0-0.80078-0.10547-1.3984-0.3125-1.7969-0.19922-0.40625-0.5-0.60938-0.90625-0.60938zm0-0.625c0.65625 0 1.1562 0.26172 1.5 0.78125 0.34375 0.51172 0.51562 1.2617 0.51562 2.25 0 0.98047-0.17188 1.7305-0.51562 2.25-0.34375 0.51172-0.84375 0.76562-1.5 0.76562s-1.1562-0.25391-1.5-0.76562c-0.34375-0.51953-0.51562-1.2695-0.51562-2.25 0-0.98828 0.17188-1.7383 0.51562-2.25 0.34375-0.51953 0.84375-0.78125 1.5-0.78125z"
         id="path1196" />
    </symbol>
    <symbol
       id="b"
       overflow="visible">
      <path
         d="m0.85938-1h0.82812v1h-0.82812z"
         id="path1199" />
    </symbol>
    <symbol
       id="j"
       overflow="visible">
      <path
         d="m1-0.67188h1.2812v-4.4375l-1.4062 0.28125v-0.71875l1.4062-0.28125h0.78125v5.1562h1.2969v0.67188h-3.3594z"
         id="path1202" />
    </symbol>
    <symbol
       id="e"
       overflow="visible">
      <path
         d="m1.5312-0.67188h2.7656v0.67188h-3.7031v-0.67188c0.28906-0.30078 0.69531-0.71094 1.2188-1.2344 0.51953-0.53125 0.84375-0.86719 0.96875-1.0156 0.25781-0.28125 0.4375-0.51953 0.53125-0.71875 0.10156-0.19531 0.15625-0.39062 0.15625-0.57812 0-0.3125-0.10938-0.56641-0.32812-0.76562-0.21875-0.19531-0.5-0.29688-0.84375-0.29688-0.25 0-0.51562 0.046875-0.79688 0.14062-0.27344 0.085937-0.5625 0.21484-0.875 0.39062v-0.79688c0.32031-0.13281 0.61719-0.23438 0.89062-0.29688 0.28125-0.0625 0.53516-0.09375 0.76562-0.09375 0.60156 0 1.082 0.15234 1.4375 0.45312 0.36328 0.30469 0.54688 0.70312 0.54688 1.2031 0 0.24219-0.046875 0.46875-0.14062 0.6875s-0.25781 0.47656-0.48438 0.76562c-0.074219 0.074219-0.28906 0.29297-0.64062 0.65625-0.34375 0.35547-0.83594 0.85547-1.4688 1.5z"
         id="path1205" />
    </symbol>
    <symbol
       id="ae"
       overflow="visible">
      <path
         d="m3.25-3.1406c0.375 0.074219 0.66406 0.24219 0.875 0.5 0.21875 0.25 0.32812 0.5625 0.32812 0.9375 0 0.58594-0.19922 1.0312-0.59375 1.3438-0.39844 0.3125-0.96094 0.46875-1.6875 0.46875-0.25 0-0.50781-0.027344-0.76562-0.078125-0.25-0.039062-0.51562-0.10938-0.79688-0.20312v-0.76562c0.21875 0.125 0.45703 0.22656 0.71875 0.29688 0.25781 0.0625 0.53125 0.09375 0.8125 0.09375 0.5 0 0.87891-0.097656 1.1406-0.29688 0.25781-0.19531 0.39062-0.48438 0.39062-0.85938 0-0.34375-0.125-0.60938-0.375-0.79688-0.24219-0.19531-0.57422-0.29688-1-0.29688h-0.67188v-0.64062h0.70312c0.38281 0 0.67969-0.078125 0.89062-0.23438 0.20703-0.15625 0.3125-0.37891 0.3125-0.67188 0-0.30078-0.10938-0.53125-0.32812-0.6875-0.21094-0.16406-0.51172-0.25-0.90625-0.25-0.21875 0-0.45312 0.027344-0.70312 0.078125-0.24219 0.042969-0.51172 0.11719-0.8125 0.21875v-0.70312c0.30078-0.082031 0.58203-0.14453 0.84375-0.1875 0.25781-0.039062 0.50781-0.0625 0.75-0.0625 0.59375 0 1.0625 0.13672 1.4062 0.40625 0.35156 0.27344 0.53125 0.64062 0.53125 1.1094 0 0.32422-0.09375 0.59375-0.28125 0.8125-0.17969 0.21875-0.4375 0.375-0.78125 0.46875z"
         id="path1208" />
    </symbol>
    <symbol
       id="i"
       overflow="visible">
      <path
         d="m3.0312-5.1406-2 3.1094h2zm-0.21875-0.6875h1v3.7969h0.82812v0.65625h-0.82812v1.375h-0.78125v-1.375h-2.6406v-0.76562z"
         id="path1211" />
    </symbol>
    <symbol
       id="ad"
       overflow="visible">
      <path
         d="m0.85938-5.8281h3.1094v0.65625h-2.375v1.4375c0.11328-0.039063 0.22656-0.070313 0.34375-0.09375 0.11328-0.019531 0.22656-0.03125 0.34375-0.03125 0.64453 0 1.1562 0.18359 1.5312 0.54688 0.38281 0.35547 0.57812 0.83594 0.57812 1.4375 0 0.625-0.19922 1.1172-0.59375 1.4688-0.38672 0.34375-0.93359 0.51562-1.6406 0.51562-0.25 0-0.5-0.023438-0.75-0.0625-0.25-0.042969-0.51172-0.10156-0.78125-0.1875v-0.79688c0.22656 0.13672 0.46875 0.23438 0.71875 0.29688s0.51562 0.09375 0.79688 0.09375c0.44531 0 0.80078-0.11719 1.0625-0.35938 0.26953-0.23828 0.40625-0.5625 0.40625-0.96875s-0.13672-0.72266-0.40625-0.95312c-0.26172-0.23828-0.61719-0.35938-1.0625-0.35938-0.21094 0-0.42188 0.027344-0.64062 0.078125-0.21094 0.042969-0.42188 0.10938-0.64062 0.20312z"
         id="path1214" />
    </symbol>
    <symbol
       id="h"
       overflow="visible">
      <path
         d="m2.6406-3.2344c-0.35547 0-0.63672 0.125-0.84375 0.375-0.21094 0.24219-0.3125 0.57031-0.3125 0.98438 0 0.41797 0.10156 0.75 0.3125 1 0.20703 0.24219 0.48828 0.35938 0.84375 0.35938 0.35156 0 0.63281-0.11719 0.84375-0.35938 0.20703-0.25 0.3125-0.58203 0.3125-1 0-0.41406-0.10547-0.74219-0.3125-0.98438-0.21094-0.25-0.49219-0.375-0.84375-0.375zm1.5625-2.4688v0.71875c-0.19922-0.09375-0.39844-0.16406-0.59375-0.21875-0.19922-0.050781-0.39844-0.078125-0.59375-0.078125-0.52344 0-0.92188 0.17969-1.2031 0.53125-0.27344 0.35547-0.42969 0.88672-0.46875 1.5938 0.15625-0.22656 0.34766-0.39844 0.57812-0.51562 0.22656-0.125 0.48438-0.1875 0.76562-0.1875 0.58203 0 1.0469 0.17969 1.3906 0.53125 0.34375 0.35547 0.51562 0.83984 0.51562 1.4531 0 0.60547-0.17969 1.0898-0.53125 1.4531-0.35547 0.35547-0.82812 0.53125-1.4219 0.53125-0.67969 0-1.1953-0.25391-1.5469-0.76562-0.35547-0.51953-0.53125-1.2695-0.53125-2.25 0-0.92578 0.21875-1.6602 0.65625-2.2031 0.4375-0.55078 1.0234-0.82812 1.7656-0.82812 0.19531 0 0.39453 0.023438 0.59375 0.0625 0.19531 0.03125 0.40625 0.089844 0.625 0.17188z"
         id="path1217" />
    </symbol>
    <symbol
       id="ac"
       overflow="visible">
      <path
         d="m0.65625-5.8281h3.75v0.32812l-2.1094 5.5h-0.82812l1.9844-5.1719h-2.7969z"
         id="path1220" />
    </symbol>
    <symbol
       id="ah"
       overflow="visible">
      <path
         d="m2.5469-2.7656c-0.375 0-0.67188 0.10156-0.89062 0.29688-0.21094 0.19922-0.3125 0.47656-0.3125 0.82812 0 0.35547 0.10156 0.63281 0.3125 0.82812 0.21875 0.19922 0.51562 0.29688 0.89062 0.29688s0.66406-0.097656 0.875-0.29688c0.21875-0.20703 0.32812-0.48438 0.32812-0.82812 0-0.35156-0.10938-0.62891-0.32812-0.82812-0.21094-0.19531-0.5-0.29688-0.875-0.29688zm-0.79688-0.34375c-0.33594-0.082031-0.59375-0.23828-0.78125-0.46875-0.1875-0.22656-0.28125-0.50781-0.28125-0.84375 0-0.46875 0.16016-0.83594 0.48438-1.1094 0.33203-0.26953 0.78906-0.40625 1.375-0.40625 0.58203 0 1.0352 0.13672 1.3594 0.40625 0.33203 0.27344 0.5 0.64062 0.5 1.1094 0 0.33594-0.09375 0.61719-0.28125 0.84375-0.1875 0.23047-0.44922 0.38672-0.78125 0.46875 0.375 0.09375 0.66406 0.27344 0.875 0.53125 0.21875 0.25 0.32812 0.5625 0.32812 0.9375 0 0.5625-0.17188 0.99609-0.51562 1.2969-0.34375 0.30469-0.83984 0.45312-1.4844 0.45312-0.64844 0-1.1406-0.14844-1.4844-0.45312-0.34375-0.30078-0.51562-0.73438-0.51562-1.2969 0-0.375 0.10156-0.6875 0.3125-0.9375 0.21875-0.25781 0.51562-0.4375 0.89062-0.53125zm-0.28125-1.25c0 0.30469 0.09375 0.54297 0.28125 0.71875 0.1875 0.16797 0.45312 0.25 0.79688 0.25 0.33203 0 0.59375-0.082031 0.78125-0.25 0.19531-0.17578 0.29688-0.41406 0.29688-0.71875 0-0.30078-0.10156-0.53516-0.29688-0.70312-0.1875-0.16406-0.44922-0.25-0.78125-0.25-0.34375 0-0.60938 0.085938-0.79688 0.25-0.1875 0.16797-0.28125 0.40234-0.28125 0.70312z"
         id="path1223" />
    </symbol>
    <symbol
       id="ag"
       overflow="visible">
      <path
         d="m0.875-0.125v-0.71875c0.19531 0.09375 0.39453 0.16797 0.59375 0.21875 0.20703 0.054688 0.41016 0.078125 0.60938 0.078125 0.51953 0 0.91406-0.17578 1.1875-0.53125 0.28125-0.35156 0.44141-0.88281 0.48438-1.5938-0.15625 0.21875-0.35156 0.39062-0.57812 0.51562-0.23047 0.11719-0.48438 0.17188-0.76562 0.17188-0.58594 0-1.0469-0.17188-1.3906-0.51562-0.34375-0.35156-0.51562-0.83594-0.51562-1.4531 0-0.60156 0.17578-1.082 0.53125-1.4375 0.35156-0.36328 0.82812-0.54688 1.4219-0.54688 0.67578 0 1.1914 0.26172 1.5469 0.78125 0.35156 0.51172 0.53125 1.2617 0.53125 2.25 0 0.91797-0.21875 1.6523-0.65625 2.2031-0.4375 0.54297-1.0273 0.8125-1.7656 0.8125-0.19922 0-0.40234-0.023438-0.60938-0.0625-0.19922-0.03125-0.40625-0.085938-0.625-0.17188zm1.5781-2.4688c0.35156 0 0.63281-0.11719 0.84375-0.35938 0.20703-0.25 0.3125-0.58203 0.3125-1 0-0.41406-0.10547-0.74219-0.3125-0.98438-0.21094-0.25-0.49219-0.375-0.84375-0.375-0.35547 0-0.63672 0.125-0.84375 0.375-0.21094 0.24219-0.3125 0.57031-0.3125 0.98438 0 0.41797 0.10156 0.75 0.3125 1 0.20703 0.24219 0.48828 0.35938 0.84375 0.35938z"
         id="path1226" />
    </symbol>
    <symbol
       id="af"
       overflow="visible">
      <path
         d="m0.39062-2.5156h2.1094v0.64062h-2.1094z"
         id="path1229" />
    </symbol>
    <symbol
       id="ab"
       overflow="visible">
      <path
         d="m1.1719-8.75h5.5312v1h-4.3438v2.5938h4.1719v0.98438h-4.1719v3.1719h4.4531v1h-5.6406z"
         id="path1232" />
    </symbol>
    <symbol
       id="d"
       overflow="visible">
      <path
         d="m4.9375-5.5625c-0.125-0.0625-0.26172-0.10938-0.40625-0.14062-0.13672-0.039063-0.29297-0.0625-0.46875-0.0625-0.60547 0-1.0742 0.19922-1.4062 0.59375-0.32422 0.39844-0.48438 0.96875-0.48438 1.7188v3.4531h-1.0781v-6.5625h1.0781v1.0156c0.22656-0.39453 0.52344-0.6875 0.89062-0.875 0.36328-0.19531 0.80469-0.29688 1.3281-0.29688 0.070313 0 0.14844 0.00781 0.23438 0.015625 0.09375 0.011719 0.19141 0.027344 0.29688 0.046875z"
         id="path1235" />
    </symbol>
    <symbol
       id="s"
       overflow="visible">
      <path
         d="m3.6719-5.8125c-0.57422 0-1.0312 0.23047-1.375 0.6875-0.33594 0.44922-0.5 1.0625-0.5 1.8438 0 0.79297 0.16406 1.4141 0.5 1.8594 0.33203 0.44922 0.78906 0.67188 1.375 0.67188 0.57031 0 1.0234-0.22266 1.3594-0.67188 0.34375-0.45703 0.51562-1.0781 0.51562-1.8594 0-0.76953-0.17188-1.3828-0.51562-1.8438-0.33594-0.45703-0.78906-0.6875-1.3594-0.6875zm0-0.90625c0.9375 0 1.6719 0.30859 2.2031 0.92188 0.53906 0.60547 0.8125 1.4453 0.8125 2.5156 0 1.0742-0.27344 1.918-0.8125 2.5312-0.53125 0.61719-1.2656 0.92188-2.2031 0.92188s-1.6797-0.30469-2.2188-0.92188c-0.53125-0.61328-0.79688-1.457-0.79688-2.5312 0-1.0703 0.26562-1.9102 0.79688-2.5156 0.53906-0.61328 1.2812-0.92188 2.2188-0.92188z"
         id="path1238" />
    </symbol>
    <symbol
       id="r"
       overflow="visible">
      <path
         d="m2.3594-7.7812v6.8125h1.4375c1.207 0 2.0859-0.26953 2.6406-0.8125 0.5625-0.55078 0.84375-1.4219 0.84375-2.6094 0-1.1641-0.28125-2.0195-0.84375-2.5625-0.55469-0.55078-1.4336-0.82812-2.6406-0.82812zm-1.1875-0.96875h2.4375c1.6953 0 2.9414 0.35547 3.7344 1.0625 0.78906 0.69922 1.1875 1.7969 1.1875 3.2969 0 1.5117-0.40234 2.6211-1.2031 3.3281-0.79297 0.71094-2.0312 1.0625-3.7188 1.0625h-2.4375z"
         id="path1241" />
    </symbol>
    <symbol
       id="q"
       overflow="visible">
      <path
         d="m6.75-3.5469v0.51562h-4.9688c0.050781 0.75 0.27344 1.3203 0.67188 1.7031 0.40625 0.38672 0.96094 0.57812 1.6719 0.57812 0.41406 0 0.81641-0.046875 1.2031-0.14062 0.39453-0.10156 0.78516-0.25781 1.1719-0.46875v1.0312c-0.39844 0.15625-0.79688 0.27734-1.2031 0.35938-0.40625 0.09375-0.82031 0.14062-1.2344 0.14062-1.043 0-1.8711-0.30078-2.4844-0.90625-0.61719-0.61328-0.92188-1.4414-0.92188-2.4844 0-1.0703 0.28906-1.9219 0.875-2.5469 0.58203-0.63281 1.3633-0.95312 2.3438-0.95312 0.88281 0 1.582 0.28906 2.0938 0.85938 0.51953 0.5625 0.78125 1.3359 0.78125 2.3125zm-1.0781-0.32812c-0.011719-0.58203-0.17969-1.0508-0.5-1.4062-0.32422-0.35156-0.75-0.53125-1.2812-0.53125-0.60547 0-1.0898 0.17188-1.4531 0.51562-0.35547 0.34375-0.55859 0.82422-0.60938 1.4375z"
         id="path1244" />
    </symbol>
    <symbol
       id="p"
       overflow="visible">
      <path
         d="m4.4531-9.125v0.90625h-1.0312c-0.38672 0-0.65625 0.078125-0.8125 0.23438-0.14844 0.15625-0.21875 0.4375-0.21875 0.84375v0.57812h1.7812v0.84375h-1.7812v5.7188h-1.0781v-5.7188h-1.0312v-0.84375h1.0312v-0.45312c0-0.72656 0.16406-1.2578 0.5-1.5938 0.34375-0.34375 0.88281-0.51562 1.625-0.51562z"
         id="path1247" />
    </symbol>
    <symbol
       id="g"
       overflow="visible">
      <path
         d="m4.1094-3.2969c-0.86719 0-1.4688 0.10156-1.8125 0.29688-0.33594 0.19922-0.5 0.53906-0.5 1.0156 0 0.38672 0.125 0.69531 0.375 0.92188 0.25781 0.21875 0.60156 0.32812 1.0312 0.32812 0.60156 0 1.082-0.20703 1.4375-0.625 0.36328-0.42578 0.54688-0.99219 0.54688-1.7031v-0.23438zm2.1562-0.45312v3.75h-1.0781v-1c-0.25 0.39844-0.55859 0.69531-0.92188 0.89062-0.36719 0.1875-0.8125 0.28125-1.3438 0.28125-0.67969 0-1.2148-0.1875-1.6094-0.5625-0.39844-0.38281-0.59375-0.89062-0.59375-1.5156 0-0.73828 0.24219-1.2969 0.73438-1.6719 0.5-0.375 1.2383-0.5625 2.2188-0.5625h1.5156v-0.10938c0-0.5-0.16797-0.88281-0.5-1.1562-0.32422-0.26953-0.77734-0.40625-1.3594-0.40625-0.375 0-0.74609 0.046875-1.1094 0.14062-0.35547 0.09375-0.69531 0.23047-1.0156 0.40625v-1c0.39453-0.15625 0.77344-0.26953 1.1406-0.34375 0.375-0.070313 0.73828-0.10938 1.0938-0.10938 0.94531 0 1.6562 0.24609 2.125 0.73438 0.46875 0.49219 0.70312 1.2344 0.70312 2.2344z"
         id="path1250" />
    </symbol>
    <symbol
       id="f"
       overflow="visible">
      <path
         d="m1.0156-2.5938v-3.9688h1.0781v3.9375c0 0.61719 0.11719 1.0781 0.35938 1.3906 0.25 0.3125 0.61328 0.46875 1.0938 0.46875 0.58203 0 1.0391-0.17969 1.375-0.54688 0.34375-0.375 0.51562-0.88281 0.51562-1.5312v-3.7188h1.0781v6.5625h-1.0781v-1.0156c-0.26172 0.40625-0.5625 0.71094-0.90625 0.90625-0.34375 0.1875-0.74609 0.28125-1.2031 0.28125-0.76172 0-1.3398-0.23438-1.7344-0.70312-0.38672-0.46875-0.57812-1.1562-0.57812-2.0625z"
         id="path1253" />
    </symbol>
    <symbol
       id="c"
       overflow="visible">
      <path
         d="m1.125-9.125h1.0781v9.125h-1.0781z"
         id="path1256" />
    </symbol>
    <symbol
       id="aa"
       overflow="visible">
      <path
         d="m2.2031-8.4219v1.8594h2.2188v0.84375h-2.2188v3.5625c0 0.53125 0.070313 0.875 0.21875 1.0312 0.14453 0.14844 0.44141 0.21875 0.89062 0.21875h1.1094v0.90625h-1.1094c-0.83594 0-1.4141-0.15625-1.7344-0.46875-0.3125-0.3125-0.46875-0.875-0.46875-1.6875v-3.5625h-0.78125v-0.84375h0.78125v-1.8594z"
         id="path1259" />
    </symbol>
    <symbol
       id="z"
       overflow="visible">
      <path
         d="m4.7344-7.9531c-0.86719 0-1.5547 0.32422-2.0625 0.96875-0.5 0.63672-0.75 1.5117-0.75 2.625 0 1.0938 0.25 1.9648 0.75 2.6094 0.50781 0.63672 1.1953 0.95312 2.0625 0.95312 0.85156 0 1.5312-0.31641 2.0312-0.95312 0.50781-0.64453 0.76562-1.5156 0.76562-2.6094 0-1.1133-0.25781-1.9883-0.76562-2.625-0.5-0.64453-1.1797-0.96875-2.0312-0.96875zm0-0.95312c1.2188 0 2.1914 0.41406 2.9219 1.2344 0.73828 0.82422 1.1094 1.9297 1.1094 3.3125 0 1.375-0.37109 2.4766-1.1094 3.2969-0.73047 0.82422-1.7031 1.2344-2.9219 1.2344-1.2305 0-2.2148-0.41016-2.9531-1.2344-0.74219-0.82031-1.1094-1.9219-1.1094-3.2969 0-1.3828 0.36719-2.4883 1.1094-3.3125 0.73828-0.82031 1.7227-1.2344 2.9531-1.2344z"
         id="path1262" />
    </symbol>
    <symbol
       id="y"
       overflow="visible">
      <path
         d="m5.4531-5.5625v-3.5625h1.0781v9.125h-1.0781v-0.98438c-0.23047 0.38672-0.51562 0.67969-0.85938 0.875-0.34375 0.1875-0.76172 0.28125-1.25 0.28125-0.79297 0-1.4375-0.31641-1.9375-0.95312-0.5-0.63281-0.75-1.4688-0.75-2.5s0.25-1.8594 0.75-2.4844c0.5-0.63281 1.1445-0.95312 1.9375-0.95312 0.48828 0 0.90625 0.09375 1.25 0.28125s0.62891 0.48047 0.85938 0.875zm-3.6719 2.2812c0 0.79297 0.16016 1.418 0.48438 1.875 0.32031 0.44922 0.76953 0.67188 1.3438 0.67188 0.57031 0 1.0195-0.22266 1.3438-0.67188 0.33203-0.45703 0.5-1.082 0.5-1.875 0-0.78906-0.16797-1.4102-0.5-1.8594-0.32422-0.44531-0.77344-0.67188-1.3438-0.67188-0.57422 0-1.0234 0.22656-1.3438 0.67188-0.32422 0.44922-0.48438 1.0703-0.48438 1.8594z"
         id="path1265" />
    </symbol>
    <symbol
       id="x"
       overflow="visible" />
    <symbol
       id="w"
       overflow="visible">
      <path
         d="m1.1719-8.75h1.1875v8.75h-1.1875z"
         id="path1269" />
    </symbol>
    <symbol
       id="v"
       overflow="visible">
      <path
         d="m6.2344-5.2969c0.26953-0.48828 0.59375-0.84766 0.96875-1.0781 0.375-0.22656 0.81641-0.34375 1.3281-0.34375 0.6875 0 1.2109 0.24219 1.5781 0.71875 0.375 0.48047 0.5625 1.1562 0.5625 2.0312v3.9688h-1.0781v-3.9219c0-0.63281-0.11719-1.1016-0.34375-1.4062-0.21875-0.30078-0.55859-0.45312-1.0156-0.45312-0.5625 0-1.0078 0.1875-1.3281 0.5625-0.32422 0.36719-0.48438 0.87109-0.48438 1.5156v3.7031h-1.0781v-3.9219c0-0.63281-0.11719-1.1016-0.34375-1.4062-0.21875-0.30078-0.5625-0.45312-1.0312-0.45312-0.55469 0-0.99219 0.1875-1.3125 0.5625-0.32422 0.36719-0.48438 0.87109-0.48438 1.5156v3.7031h-1.0781v-6.5625h1.0781v1.0156c0.25-0.39453 0.54688-0.6875 0.89062-0.875 0.34375-0.19531 0.75-0.29688 1.2188-0.29688 0.47656 0 0.88281 0.12109 1.2188 0.35938 0.33203 0.24219 0.57812 0.59375 0.73438 1.0625z"
         id="path1272" />
    </symbol>
    <symbol
       id="u"
       overflow="visible">
      <path
         d="m1.125-6.5625h1.0781v6.5625h-1.0781zm0-2.5625h1.0781v1.375h-1.0781z"
         id="path1275" />
    </symbol>
    <symbol
       id="t"
       overflow="visible">
      <path
         d="m6.5938-3.9688v3.9688h-1.0781v-3.9219c0-0.625-0.125-1.0859-0.375-1.3906-0.24219-0.3125-0.60156-0.46875-1.0781-0.46875-0.58594 0-1.0469 0.1875-1.3906 0.5625-0.33594 0.36719-0.5 0.87109-0.5 1.5156v3.7031h-1.0781v-6.5625h1.0781v1.0156c0.25781-0.39453 0.5625-0.6875 0.90625-0.875 0.35156-0.19531 0.75781-0.29688 1.2188-0.29688 0.75 0 1.3164 0.23438 1.7031 0.70312 0.39453 0.46094 0.59375 1.1406 0.59375 2.0469z"
         id="path1278" />
    </symbol>
    <symbol
       id="o"
       overflow="visible">
      <path
         d="m-7.7812-2.3594h3.2969v-1.4844c0-0.55078-0.14062-0.97656-0.42188-1.2812-0.28906-0.30078-0.70312-0.45312-1.2344-0.45312-0.51953 0-0.92188 0.15234-1.2031 0.45312-0.28906 0.30469-0.4375 0.73047-0.4375 1.2812zm-0.96875 1.1875v-2.6719c0-0.98828 0.22656-1.7344 0.67188-2.2344 0.4375-0.5 1.0859-0.75 1.9375-0.75 0.86719 0 1.5234 0.25 1.9688 0.75 0.4375 0.5 0.65625 1.2461 0.65625 2.2344v1.4844h3.5156v1.1875z"
         id="path1281" />
    </symbol>
    <symbol
       id="n"
       overflow="visible">
      <path
         d="m-3.9688-6.5938h3.9688v1.0781h-3.9219c-0.625 0-1.0859 0.125-1.3906 0.375-0.3125 0.24219-0.46875 0.60156-0.46875 1.0781 0 0.58594 0.1875 1.0469 0.5625 1.3906 0.36719 0.33594 0.87109 0.5 1.5156 0.5h3.7031v1.0781h-9.125v-1.0781h3.5781c-0.39453-0.25781-0.6875-0.5625-0.875-0.90625-0.19531-0.35156-0.29688-0.75781-0.29688-1.2188 0-0.75 0.23438-1.3164 0.70312-1.7031 0.46094-0.39453 1.1406-0.59375 2.0469-0.59375z"
         id="path1284" />
    </symbol>
    <symbol
       id="m"
       overflow="visible">
      <path
         d="m-5.5625-4.9375c-0.0625 0.125-0.10938 0.26172-0.14062 0.40625-0.039063 0.13672-0.0625 0.29297-0.0625 0.46875 0 0.60547 0.19922 1.0742 0.59375 1.4062 0.39844 0.32422 0.96875 0.48438 1.7188 0.48438h3.4531v1.0781h-6.5625v-1.0781h1.0156c-0.39453-0.22656-0.6875-0.52344-0.875-0.89062-0.19531-0.36328-0.29688-0.80469-0.29688-1.3281 0-0.070313 0.00781-0.14844 0.015625-0.23438 0.011719-0.09375 0.027344-0.19141 0.046875-0.29688z"
         id="path1287" />
    </symbol>
    <symbol
       id="l"
       overflow="visible">
      <path
         d="m-3.5469-6.75h0.51562v4.9688c0.75-0.050781 1.3203-0.27344 1.7031-0.67188 0.38672-0.40625 0.57812-0.96094 0.57812-1.6719 0-0.41406-0.046875-0.81641-0.14062-1.2031-0.10156-0.39453-0.25781-0.78516-0.46875-1.1719h1.0312c0.15625 0.39844 0.27734 0.79688 0.35938 1.2031 0.09375 0.40625 0.14062 0.82031 0.14062 1.2344 0 1.043-0.30078 1.8711-0.90625 2.4844-0.61328 0.61719-1.4414 0.92188-2.4844 0.92188-1.0703 0-1.9219-0.28906-2.5469-0.875-0.63281-0.58203-0.95312-1.3633-0.95312-2.3438 0-0.88281 0.28906-1.582 0.85938-2.0938 0.5625-0.51953 1.3359-0.78125 2.3125-0.78125zm-0.32812 1.0781c-0.58203 0.011719-1.0508 0.17969-1.4062 0.5-0.35156 0.32422-0.53125 0.75-0.53125 1.2812 0 0.60547 0.17188 1.0898 0.51562 1.4531 0.34375 0.35547 0.82422 0.55859 1.4375 0.60938z"
         id="path1290" />
    </symbol>
    <symbol
       id="k"
       overflow="visible">
      <path
         d="m-5.5625-5.4531h-3.5625v-1.0781h9.125v1.0781h-0.98438c0.38672 0.23047 0.67969 0.51562 0.875 0.85938 0.1875 0.34375 0.28125 0.76172 0.28125 1.25 0 0.79297-0.31641 1.4375-0.95312 1.9375-0.63281 0.5-1.4688 0.75-2.5 0.75s-1.8594-0.25-2.4844-0.75c-0.63281-0.5-0.95312-1.1445-0.95312-1.9375 0-0.48828 0.09375-0.90625 0.28125-1.25s0.48047-0.62891 0.875-0.85938zm2.2812 3.6719c0.79297 0 1.418-0.16016 1.875-0.48438 0.44922-0.32031 0.67188-0.76953 0.67188-1.3438 0-0.57031-0.22266-1.0195-0.67188-1.3438-0.45703-0.33203-1.082-0.5-1.875-0.5-0.78906 0-1.4102 0.16797-1.8594 0.5-0.44531 0.32422-0.67188 0.77344-0.67188 1.3438 0 0.57422 0.22656 1.0234 0.67188 1.3438 0.44922 0.32422 1.0703 0.48438 1.8594 0.48438z"
         id="path1293" />
    </symbol>
  </defs>
  <path
     d="m40.414 285.36v-5"
     style="fill:none;stroke-miterlimit:10;stroke:#000000"
     id="path1298" />
  <path
     d="m83.074 285.36v-5"
     style="fill:none;stroke-miterlimit:10;stroke:#000000"
     id="path1300" />
  <path
     d="m125.73 285.36v-5"
     style="fill:none;stroke-miterlimit:10;stroke:#000000"
     id="path1302" />
  <path
     d="m168.39 285.36v-5"
     style="fill:none;stroke-miterlimit:10;stroke:#000000"
     id="path1304" />
  <path
     d="m211.05 285.36v-5"
     style="fill:none;stroke-miterlimit:10;stroke:#000000"
     id="path1306" />
  <path
     d="m253.71 285.36v-5"
     style="fill:none;stroke-miterlimit:10;stroke:#000000"
     id="path1308" />
  <path
     d="m296.38 285.36v-5"
     style="fill:none;stroke-miterlimit:10;stroke:#000000"
     id="path1310" />
  <path
     d="m339.04 285.36v-5"
     style="fill:none;stroke-miterlimit:10;stroke:#000000"
     id="path1312" />
  <path
     d="m381.7 285.36v-5"
     style="fill:none;stroke-miterlimit:10;stroke:#000000"
     id="path1314" />
  <path
     d="m424.36 285.36v-5"
     style="fill:none;stroke-miterlimit:10;stroke:#000000"
     id="path1316" />
  <path
     d="m467.02 285.36v-5"
     style="fill:none;stroke-miterlimit:10;stroke:#000000"
     id="path1318" />
  <g
     transform="translate(-30.719 -142.73)"
     style="fill:#000000"
     id="g1378">
    <use
       x="68.589844"
       y="438.25781"
       width="100%"
       height="100%"
       xlink:href="#a"
       id="use1320" />
    <use
       x="107.53516"
       y="438.25781"
       width="100%"
       height="100%"
       xlink:href="#a"
       id="use1322" />
    <use
       x="112.625"
       y="438.25781"
       width="100%"
       height="100%"
       xlink:href="#b"
       id="use1324" />
    <use
       x="115.16797"
       y="438.25781"
       width="100%"
       height="100%"
       xlink:href="#j"
       id="use1326" />
    <use
       x="150.22656"
       y="438.25781"
       width="100%"
       height="100%"
       xlink:href="#a"
       id="use1328" />
    <use
       x="155.31641"
       y="438.25781"
       width="100%"
       height="100%"
       xlink:href="#b"
       id="use1330" />
    <use
       x="157.85938"
       y="438.25781"
       width="100%"
       height="100%"
       xlink:href="#e"
       id="use1332" />
    <use
       x="192.80859"
       y="438.25781"
       width="100%"
       height="100%"
       xlink:href="#a"
       id="use1334" />
    <use
       x="197.89844"
       y="438.25781"
       width="100%"
       height="100%"
       xlink:href="#b"
       id="use1336" />
    <use
       x="200.44141"
       y="438.25781"
       width="100%"
       height="100%"
       xlink:href="#ae"
       id="use1338" />
    <use
       x="235.375"
       y="438.25781"
       width="100%"
       height="100%"
       xlink:href="#a"
       id="use1340" />
    <use
       x="240.46484"
       y="438.25781"
       width="100%"
       height="100%"
       xlink:href="#b"
       id="use1342" />
    <use
       x="243.00781"
       y="438.25781"
       width="100%"
       height="100%"
       xlink:href="#i"
       id="use1344" />
    <use
       x="278.16016"
       y="438.25781"
       width="100%"
       height="100%"
       xlink:href="#a"
       id="use1346" />
    <use
       x="283.25"
       y="438.25781"
       width="100%"
       height="100%"
       xlink:href="#b"
       id="use1348" />
    <use
       x="285.79297"
       y="438.25781"
       width="100%"
       height="100%"
       xlink:href="#ad"
       id="use1350" />
    <use
       x="320.72266"
       y="438.25781"
       width="100%"
       height="100%"
       xlink:href="#a"
       id="use1352" />
    <use
       x="325.8125"
       y="438.25781"
       width="100%"
       height="100%"
       xlink:href="#b"
       id="use1354" />
    <use
       x="328.35547"
       y="438.25781"
       width="100%"
       height="100%"
       xlink:href="#h"
       id="use1356" />
    <use
       x="363.47266"
       y="438.25781"
       width="100%"
       height="100%"
       xlink:href="#a"
       id="use1358" />
    <use
       x="368.5625"
       y="438.25781"
       width="100%"
       height="100%"
       xlink:href="#b"
       id="use1360" />
    <use
       x="371.10547"
       y="438.25781"
       width="100%"
       height="100%"
       xlink:href="#ac"
       id="use1362" />
    <use
       x="406.0625"
       y="438.25781"
       width="100%"
       height="100%"
       xlink:href="#a"
       id="use1364" />
    <use
       x="411.15234"
       y="438.25781"
       width="100%"
       height="100%"
       xlink:href="#b"
       id="use1366" />
    <use
       x="413.69531"
       y="438.25781"
       width="100%"
       height="100%"
       xlink:href="#ah"
       id="use1368" />
    <use
       x="448.73047"
       y="438.25781"
       width="100%"
       height="100%"
       xlink:href="#a"
       id="use1370" />
    <use
       x="453.82031"
       y="438.25781"
       width="100%"
       height="100%"
       xlink:href="#b"
       id="use1372" />
    <use
       x="456.36328"
       y="438.25781"
       width="100%"
       height="100%"
       xlink:href="#ag"
       id="use1374" />
    <use
       x="495.12109"
       y="438.26172"
       width="100%"
       height="100%"
       xlink:href="#j"
       id="use1376" />
  </g>
  <path
     d="m40.414 280.36h-5"
     style="fill:none;stroke-miterlimit:10;stroke:#000000"
     id="path1380" />
  <path
     d="m40.414 215.77h-5"
     style="fill:none;stroke-miterlimit:10;stroke:#000000"
     id="path1382" />
  <path
     d="m40.414 151.18h-5"
     style="fill:none;stroke-miterlimit:10;stroke:#000000"
     id="path1384" />
  <path
     d="m40.414 86.598h-5"
     style="fill:none;stroke-miterlimit:10;stroke:#000000"
     id="path1386" />
  <path
     d="m40.414 22.008h-5"
     style="fill:none;stroke-miterlimit:10;stroke:#000000"
     id="path1388" />
  <use
     x="49.847656"
     y="426.00781"
     width="100%"
     height="100%"
     xlink:href="#af"
     id="use1390"
     transform="translate(-30.719,-142.73)"
     style="fill:#000000" />
  <use
     x="52.734375"
     y="426.00781"
     width="100%"
     height="100%"
     xlink:href="#e"
     id="use1392"
     transform="translate(-30.719,-142.73)"
     style="fill:#000000" />
  <use
     x="57.824219"
     y="426.00781"
     width="100%"
     height="100%"
     xlink:href="#a"
     id="use1394"
     transform="translate(-30.719,-142.73)"
     style="fill:#000000" />
  <use
     x="57.824219"
     y="361.41797"
     width="100%"
     height="100%"
     xlink:href="#a"
     id="use1396"
     transform="translate(-30.719,-142.73)"
     style="fill:#000000" />
  <use
     x="52.734375"
     y="296.83203"
     width="100%"
     height="100%"
     xlink:href="#e"
     id="use1398"
     transform="translate(-30.719,-142.73)"
     style="fill:#000000" />
  <use
     x="57.824219"
     y="296.83203"
     width="100%"
     height="100%"
     xlink:href="#a"
     id="use1400"
     transform="translate(-30.719,-142.73)"
     style="fill:#000000" />
  <use
     x="52.734375"
     y="232.24219"
     width="100%"
     height="100%"
     xlink:href="#i"
     id="use1402"
     transform="translate(-30.719,-142.73)"
     style="fill:#000000" />
  <use
     x="57.824219"
     y="232.24219"
     width="100%"
     height="100%"
     xlink:href="#a"
     id="use1404"
     transform="translate(-30.719,-142.73)"
     style="fill:#000000" />
  <use
     x="52.734375"
     y="167.65234"
     width="100%"
     height="100%"
     xlink:href="#h"
     id="use1406"
     transform="translate(-30.719,-142.73)"
     style="fill:#000000" />
  <use
     x="57.824219"
     y="167.65234"
     width="100%"
     height="100%"
     xlink:href="#a"
     id="use1408"
     transform="translate(-30.719,-142.73)"
     style="fill:#000000" />
  <use
     x="268.98438"
     y="455.83594"
     width="100%"
     height="100%"
     xlink:href="#ab"
     id="use1410"
     transform="translate(-30.719,-142.73)"
     style="fill:#000000" />
  <use
     x="276.56641"
     y="455.83594"
     width="100%"
     height="100%"
     xlink:href="#d"
     id="use1412"
     transform="translate(-30.719,-142.73)"
     style="fill:#000000" />
  <use
     x="281.5"
     y="455.83594"
     width="100%"
     height="100%"
     xlink:href="#d"
     id="use1414"
     transform="translate(-30.719,-142.73)"
     style="fill:#000000" />
  <use
     x="286.43359"
     y="455.83594"
     width="100%"
     height="100%"
     xlink:href="#s"
     id="use1416"
     transform="translate(-30.719,-142.73)"
     style="fill:#000000" />
  <use
     x="293.77539"
     y="455.83594"
     width="100%"
     height="100%"
     xlink:href="#d"
     id="use1418"
     transform="translate(-30.719,-142.73)"
     style="fill:#000000" />
  <g
     id="g1603"
     transform="translate(0,53.578933)">
    <use
       x="39.84375"
       y="246.76172"
       width="100%"
       height="100%"
       xlink:href="#o"
       id="use1420"
       transform="translate(-30.719,-142.73)"
       style="fill:#000000" />
    <use
       x="39.84375"
       y="239.52539"
       width="100%"
       height="100%"
       xlink:href="#n"
       id="use1422"
       transform="translate(-30.719,-142.73)"
       style="fill:#000000" />
    <use
       x="39.84375"
       y="231.91992"
       width="100%"
       height="100%"
       xlink:href="#m"
       id="use1424"
       transform="translate(-30.719,-142.73)"
       style="fill:#000000" />
    <use
       x="39.84375"
       y="226.98633"
       width="100%"
       height="100%"
       xlink:href="#l"
       id="use1426"
       transform="translate(-30.719,-142.73)"
       style="fill:#000000" />
    <use
       x="39.84375"
       y="219.60352"
       width="100%"
       height="100%"
       xlink:href="#k"
       id="use1428"
       transform="translate(-30.719,-142.73)"
       style="fill:#000000" />
  </g>
  <path
     d="m40.414 0v280.36"
     style="fill:none;stroke-miterlimit:10;stroke:#000000"
     id="path1432" />
  <path
     d="m40.414 280.36h426.6"
     style="fill:none;stroke-miterlimit:10;stroke:#000000"
     id="path1434" />
  <path
     d="m40.414 215.77h426.6"
     style="fill:#000000;stroke-miterlimit:10;stroke:#000000"
     id="path1436" />
  <path
     d="m467.02 215.77-87.738-3.2305-69.695-3.2305-55.359-3.2305-43.977-3.2266-34.93-3.2305-27.746-3.2305-22.039-3.2266-17.508-3.2305-13.902-3.2305-11.047-3.2305-8.7734-3.2266-6.9727-3.2305-5.5352-3.2305-4.3945-3.2305-3.4961-3.2266-2.7734-3.2305-2.2031-3.2305-1.75-3.2266-1.3906-3.2305-1.1055-3.2305-0.87891-3.2305-0.69531-3.2266-0.55469-3.2305-0.4375-3.2305-0.35156-3.2305-0.27734-3.2266-0.21875-3.2305-0.17578-3.2305-0.14062-3.2266-0.10938-3.2305-0.08594-3.2305-0.07031-3.2305-0.05859-3.2266-0.04297-3.2305-0.03516-3.2305-0.02734-3.2305-0.01953-3.2266-0.01953-3.2305-0.01172-3.2305-0.01172-3.2266-0.01172-3.2305-0.0039-3.2305-0.0078-3.2305-0.0039-3.2266-0.0039-3.2305v-3.2305l-0.0039-3.2305-0.0039-3.2266v-9.6875l-0.0039-3.2305"
     style="fill:none;stroke-miterlimit:10;stroke:#f8756b"
     id="path1438" />
  <path
     d="m364.52 231.92-18.98-3.2266-20.953-3.2305-22.609-3.2305-23.816-3.2305-24.449-3.2266-24.449-3.2305-23.816-3.2305-22.609-3.2305-20.953-3.2266-18.98-3.2305-16.848-3.2305-14.684-3.2266-12.598-3.2305-10.664-3.2305-8.918-3.2305-7.3906-3.2266-6.0703-3.2305-4.9609-3.2305-4.0273-3.2305-3.2578-3.2266-2.6211-3.2305-2.1094-3.2305-1.6875-3.2266-1.3516-3.2305-1.082-3.2305-0.86328-3.2305-0.68359-3.2266-0.55078-3.2305-0.43359-3.2305-0.34766-3.2305-0.27734-3.2266-0.21875-3.2305-0.17188-3.2305-0.14062-3.2266-0.10938-3.2305-0.08984-3.2305-0.06641-3.2305-0.05859-3.2266-0.04297-3.2305-0.03516-3.2305-0.02734-3.2305-0.01953-3.2266-0.01953-3.2305-0.01172-3.2305-0.01172-3.2266-0.01172-3.2305-0.0039-3.2305-0.0078-3.2305-0.0039-3.2266-0.0039-3.2305v-3.2305l-0.0039-3.2305-0.0039-3.2266v-9.6875l-0.0039-3.2305v-32.293"
     style="fill:none;stroke-miterlimit:10;stroke:#00bdc5"
     id="path1440" />
  <path
     d="m83.074 280.36v-96.883"
     style="fill:none;stroke-dasharray:0.399999, 0.399999;stroke-miterlimit:10;stroke-width:.4;stroke:#333333"
     id="path1442" />
  <g
     id="g1630"
     transform="translate(0,-16.4165)">
    <path
       d="m 481.24,127.43 h 28.453 v 28.453 H 481.24 Z"
       style="fill:none;stroke:#ffffff;stroke-miterlimit:10"
       id="path1444" />
    <path
       d="m 498.47,141.65 c 0,4 -6,4 -6,0 0,-4 6,-4 6,0"
       style="fill:#f8756b"
       id="path1446" />
    <g
       transform="translate(-30.719,-86.963)"
       style="fill:#000000"
       id="g1462">
      <use
         x="548.95312"
         y="233.09375"
         width="100%"
         height="100%"
         xlink:href="#r"
         id="use1448" />
      <use
         x="558.19336"
         y="233.09375"
         width="100%"
         height="100%"
         xlink:href="#q"
         id="use1450" />
      <use
         x="565.57617"
         y="233.09375"
         width="100%"
         height="100%"
         xlink:href="#p"
         id="use1452" />
      <use
         x="569.80078"
         y="233.09375"
         width="100%"
         height="100%"
         xlink:href="#g"
         id="use1454" />
      <use
         x="577.1543"
         y="233.09375"
         width="100%"
         height="100%"
         xlink:href="#f"
         id="use1456" />
      <use
         x="584.75977"
         y="233.09375"
         width="100%"
         height="100%"
         xlink:href="#c"
         id="use1458" />
      <use
         x="588.09375"
         y="233.09375"
         width="100%"
         height="100%"
         xlink:href="#aa"
         id="use1460" />
    </g>
    <path
       d="m 481.24,157.31 h 28.453 v 28.453 H 481.24 Z"
       style="fill:none;stroke:#ffffff;stroke-miterlimit:10"
       id="path1464" />
    <path
       d="m 498.47,171.53 c 0,4 -6,4 -6,0 0,-4 6,-4 6,0"
       style="fill:#00bdc5"
       id="path1466" />
    <g
       transform="translate(-30.719,-86.963)"
       style="fill:#000000"
       id="g1492">
      <use
         x="548.95312"
         y="262.96875"
         width="100%"
         height="100%"
         xlink:href="#z"
         id="use1468" />
      <use
         x="558.39844"
         y="262.96875"
         width="100%"
         height="100%"
         xlink:href="#c"
         id="use1470" />
      <use
         x="561.73242"
         y="262.96875"
         width="100%"
         height="100%"
         xlink:href="#y"
         id="use1472" />
      <use
         x="569.34961"
         y="262.96875"
         width="100%"
         height="100%"
         xlink:href="#x"
         id="use1474" />
      <use
         x="573.16406"
         y="262.96875"
         width="100%"
         height="100%"
         xlink:href="#w"
         id="use1476" />
      <use
         x="576.70312"
         y="262.96875"
         width="100%"
         height="100%"
         xlink:href="#c"
         id="use1478" />
      <use
         x="580.03711"
         y="262.96875"
         width="100%"
         height="100%"
         xlink:href="#c"
         id="use1480" />
      <use
         x="583.37109"
         y="262.96875"
         width="100%"
         height="100%"
         xlink:href="#f"
         id="use1482" />
      <use
         x="590.97656"
         y="262.96875"
         width="100%"
         height="100%"
         xlink:href="#v"
         id="use1484" />
      <use
         x="602.66602"
         y="262.96875"
         width="100%"
         height="100%"
         xlink:href="#u"
         id="use1486" />
      <use
         x="606"
         y="262.96875"
         width="100%"
         height="100%"
         xlink:href="#t"
         id="use1488" />
      <use
         x="613.60547"
         y="262.96875"
         width="100%"
         height="100%"
         xlink:href="#g"
         id="use1490" />
    </g>
  </g>
</svg>
